G04 #@! TF.GenerationSoftware,KiCad,Pcbnew,(5.1.5)-3*
G04 #@! TF.CreationDate,2020-01-26T10:54:33+01:00*
G04 #@! TF.ProjectId,ESP32-cnc,45535033-322d-4636-9e63-2e6b69636164,rev?*
G04 #@! TF.SameCoordinates,Original*
G04 #@! TF.FileFunction,Legend,Top*
G04 #@! TF.FilePolarity,Positive*
%FSLAX46Y46*%
G04 Gerber Fmt 4.6, Leading zero omitted, Abs format (unit mm)*
G04 Created by KiCad (PCBNEW (5.1.5)-3) date 2020-01-26 10:54:33*
%MOMM*%
%LPD*%
G04 APERTURE LIST*
%ADD10C,0.150000*%
%ADD11C,0.120000*%
%ADD12C,0.127000*%
%ADD13C,0.200000*%
%ADD14C,0.015000*%
G04 APERTURE END LIST*
D10*
X16089380Y-53720571D02*
X17089380Y-53053904D01*
X16089380Y-53053904D02*
X17089380Y-53720571D01*
X16708428Y-52672952D02*
X16708428Y-51911047D01*
X16803666Y-51482476D02*
X16803666Y-51006285D01*
X17089380Y-51577714D02*
X16089380Y-51244380D01*
X17089380Y-50911047D01*
X16089380Y-50672952D02*
X17089380Y-50006285D01*
X16089380Y-50006285D02*
X17089380Y-50672952D01*
X17089380Y-49625333D02*
X16089380Y-49625333D01*
X17041761Y-49196761D02*
X17089380Y-49053904D01*
X17089380Y-48815809D01*
X17041761Y-48720571D01*
X16994142Y-48672952D01*
X16898904Y-48625333D01*
X16803666Y-48625333D01*
X16708428Y-48672952D01*
X16660809Y-48720571D01*
X16613190Y-48815809D01*
X16565571Y-49006285D01*
X16517952Y-49101523D01*
X16470333Y-49149142D01*
X16375095Y-49196761D01*
X16279857Y-49196761D01*
X16184619Y-49149142D01*
X16137000Y-49101523D01*
X16089380Y-49006285D01*
X16089380Y-48768190D01*
X16137000Y-48625333D01*
X16184619Y-47482476D02*
X16137000Y-47434857D01*
X16089380Y-47339619D01*
X16089380Y-47101523D01*
X16137000Y-47006285D01*
X16184619Y-46958666D01*
X16279857Y-46911047D01*
X16375095Y-46911047D01*
X16517952Y-46958666D01*
X17089380Y-47530095D01*
X17089380Y-46911047D01*
X16025880Y-70421071D02*
X17025880Y-69754404D01*
X16025880Y-69754404D02*
X17025880Y-70421071D01*
X16644928Y-69373452D02*
X16644928Y-68611547D01*
X16740166Y-68182976D02*
X16740166Y-67706785D01*
X17025880Y-68278214D02*
X16025880Y-67944880D01*
X17025880Y-67611547D01*
X16025880Y-67373452D02*
X17025880Y-66706785D01*
X16025880Y-66706785D02*
X17025880Y-67373452D01*
X17025880Y-66325833D02*
X16025880Y-66325833D01*
X16978261Y-65897261D02*
X17025880Y-65754404D01*
X17025880Y-65516309D01*
X16978261Y-65421071D01*
X16930642Y-65373452D01*
X16835404Y-65325833D01*
X16740166Y-65325833D01*
X16644928Y-65373452D01*
X16597309Y-65421071D01*
X16549690Y-65516309D01*
X16502071Y-65706785D01*
X16454452Y-65802023D01*
X16406833Y-65849642D01*
X16311595Y-65897261D01*
X16216357Y-65897261D01*
X16121119Y-65849642D01*
X16073500Y-65802023D01*
X16025880Y-65706785D01*
X16025880Y-65468690D01*
X16073500Y-65325833D01*
X17025880Y-63611547D02*
X17025880Y-64182976D01*
X17025880Y-63897261D02*
X16025880Y-63897261D01*
X16168738Y-63992500D01*
X16263976Y-64087738D01*
X16311595Y-64182976D01*
X16486190Y-88375738D02*
X16962380Y-88375738D01*
X15962380Y-88709071D02*
X16486190Y-88375738D01*
X15962380Y-88042404D01*
X16581428Y-87709071D02*
X16581428Y-86947166D01*
X16676666Y-86518595D02*
X16676666Y-86042404D01*
X16962380Y-86613833D02*
X15962380Y-86280500D01*
X16962380Y-85947166D01*
X15962380Y-85709071D02*
X16962380Y-85042404D01*
X15962380Y-85042404D02*
X16962380Y-85709071D01*
X16962380Y-84661452D02*
X15962380Y-84661452D01*
X16914761Y-84232880D02*
X16962380Y-84090023D01*
X16962380Y-83851928D01*
X16914761Y-83756690D01*
X16867142Y-83709071D01*
X16771904Y-83661452D01*
X16676666Y-83661452D01*
X16581428Y-83709071D01*
X16533809Y-83756690D01*
X16486190Y-83851928D01*
X16438571Y-84042404D01*
X16390952Y-84137642D01*
X16343333Y-84185261D01*
X16248095Y-84232880D01*
X16152857Y-84232880D01*
X16057619Y-84185261D01*
X16010000Y-84137642D01*
X15962380Y-84042404D01*
X15962380Y-83804309D01*
X16010000Y-83661452D01*
X16057619Y-82518595D02*
X16010000Y-82470976D01*
X15962380Y-82375738D01*
X15962380Y-82137642D01*
X16010000Y-82042404D01*
X16057619Y-81994785D01*
X16152857Y-81947166D01*
X16248095Y-81947166D01*
X16390952Y-81994785D01*
X16962380Y-82566214D01*
X16962380Y-81947166D01*
X16422690Y-105520738D02*
X16898880Y-105520738D01*
X15898880Y-105854071D02*
X16422690Y-105520738D01*
X15898880Y-105187404D01*
X16517928Y-104854071D02*
X16517928Y-104092166D01*
X16613166Y-103663595D02*
X16613166Y-103187404D01*
X16898880Y-103758833D02*
X15898880Y-103425500D01*
X16898880Y-103092166D01*
X15898880Y-102854071D02*
X16898880Y-102187404D01*
X15898880Y-102187404D02*
X16898880Y-102854071D01*
X16898880Y-101806452D02*
X15898880Y-101806452D01*
X16851261Y-101377880D02*
X16898880Y-101235023D01*
X16898880Y-100996928D01*
X16851261Y-100901690D01*
X16803642Y-100854071D01*
X16708404Y-100806452D01*
X16613166Y-100806452D01*
X16517928Y-100854071D01*
X16470309Y-100901690D01*
X16422690Y-100996928D01*
X16375071Y-101187404D01*
X16327452Y-101282642D01*
X16279833Y-101330261D01*
X16184595Y-101377880D01*
X16089357Y-101377880D01*
X15994119Y-101330261D01*
X15946500Y-101282642D01*
X15898880Y-101187404D01*
X15898880Y-100949309D01*
X15946500Y-100806452D01*
X16898880Y-99092166D02*
X16898880Y-99663595D01*
X16898880Y-99377880D02*
X15898880Y-99377880D01*
X16041738Y-99473119D01*
X16136976Y-99568357D01*
X16184595Y-99663595D01*
X15962380Y-121951428D02*
X15962380Y-121284761D01*
X16962380Y-121951428D01*
X16962380Y-121284761D01*
X16581428Y-120903809D02*
X16581428Y-120141904D01*
X16676666Y-119713333D02*
X16676666Y-119237142D01*
X16962380Y-119808571D02*
X15962380Y-119475238D01*
X16962380Y-119141904D01*
X15962380Y-118903809D02*
X16962380Y-118237142D01*
X15962380Y-118237142D02*
X16962380Y-118903809D01*
X16962380Y-117856190D02*
X15962380Y-117856190D01*
X16914761Y-117427619D02*
X16962380Y-117284761D01*
X16962380Y-117046666D01*
X16914761Y-116951428D01*
X16867142Y-116903809D01*
X16771904Y-116856190D01*
X16676666Y-116856190D01*
X16581428Y-116903809D01*
X16533809Y-116951428D01*
X16486190Y-117046666D01*
X16438571Y-117237142D01*
X16390952Y-117332380D01*
X16343333Y-117380000D01*
X16248095Y-117427619D01*
X16152857Y-117427619D01*
X16057619Y-117380000D01*
X16010000Y-117332380D01*
X15962380Y-117237142D01*
X15962380Y-116999047D01*
X16010000Y-116856190D01*
X106029404Y-61412380D02*
X106029404Y-60412380D01*
X106410357Y-60412380D01*
X106505595Y-60460000D01*
X106553214Y-60507619D01*
X106600833Y-60602857D01*
X106600833Y-60745714D01*
X106553214Y-60840952D01*
X106505595Y-60888571D01*
X106410357Y-60936190D01*
X106029404Y-60936190D01*
X107600833Y-61412380D02*
X107267500Y-60936190D01*
X107029404Y-61412380D02*
X107029404Y-60412380D01*
X107410357Y-60412380D01*
X107505595Y-60460000D01*
X107553214Y-60507619D01*
X107600833Y-60602857D01*
X107600833Y-60745714D01*
X107553214Y-60840952D01*
X107505595Y-60888571D01*
X107410357Y-60936190D01*
X107029404Y-60936190D01*
X108219880Y-60412380D02*
X108410357Y-60412380D01*
X108505595Y-60460000D01*
X108600833Y-60555238D01*
X108648452Y-60745714D01*
X108648452Y-61079047D01*
X108600833Y-61269523D01*
X108505595Y-61364761D01*
X108410357Y-61412380D01*
X108219880Y-61412380D01*
X108124642Y-61364761D01*
X108029404Y-61269523D01*
X107981785Y-61079047D01*
X107981785Y-60745714D01*
X108029404Y-60555238D01*
X108124642Y-60460000D01*
X108219880Y-60412380D01*
X109410357Y-60888571D02*
X109553214Y-60936190D01*
X109600833Y-60983809D01*
X109648452Y-61079047D01*
X109648452Y-61221904D01*
X109600833Y-61317142D01*
X109553214Y-61364761D01*
X109457976Y-61412380D01*
X109077023Y-61412380D01*
X109077023Y-60412380D01*
X109410357Y-60412380D01*
X109505595Y-60460000D01*
X109553214Y-60507619D01*
X109600833Y-60602857D01*
X109600833Y-60698095D01*
X109553214Y-60793333D01*
X109505595Y-60840952D01*
X109410357Y-60888571D01*
X109077023Y-60888571D01*
X110077023Y-60888571D02*
X110410357Y-60888571D01*
X110553214Y-61412380D02*
X110077023Y-61412380D01*
X110077023Y-60412380D01*
X110553214Y-60412380D01*
X106561119Y-56332380D02*
X106227785Y-55856190D01*
X105989690Y-56332380D02*
X105989690Y-55332380D01*
X106370642Y-55332380D01*
X106465880Y-55380000D01*
X106513500Y-55427619D01*
X106561119Y-55522857D01*
X106561119Y-55665714D01*
X106513500Y-55760952D01*
X106465880Y-55808571D01*
X106370642Y-55856190D01*
X105989690Y-55856190D01*
X106989690Y-55808571D02*
X107323023Y-55808571D01*
X107465880Y-56332380D02*
X106989690Y-56332380D01*
X106989690Y-55332380D01*
X107465880Y-55332380D01*
X107846833Y-56284761D02*
X107989690Y-56332380D01*
X108227785Y-56332380D01*
X108323023Y-56284761D01*
X108370642Y-56237142D01*
X108418261Y-56141904D01*
X108418261Y-56046666D01*
X108370642Y-55951428D01*
X108323023Y-55903809D01*
X108227785Y-55856190D01*
X108037309Y-55808571D01*
X107942071Y-55760952D01*
X107894452Y-55713333D01*
X107846833Y-55618095D01*
X107846833Y-55522857D01*
X107894452Y-55427619D01*
X107942071Y-55380000D01*
X108037309Y-55332380D01*
X108275404Y-55332380D01*
X108418261Y-55380000D01*
X108846833Y-55808571D02*
X109180166Y-55808571D01*
X109323023Y-56332380D02*
X108846833Y-56332380D01*
X108846833Y-55332380D01*
X109323023Y-55332380D01*
X109608738Y-55332380D02*
X110180166Y-55332380D01*
X109894452Y-56332380D02*
X109894452Y-55332380D01*
X105846809Y-51331761D02*
X105989666Y-51379380D01*
X106227761Y-51379380D01*
X106323000Y-51331761D01*
X106370619Y-51284142D01*
X106418238Y-51188904D01*
X106418238Y-51093666D01*
X106370619Y-50998428D01*
X106323000Y-50950809D01*
X106227761Y-50903190D01*
X106037285Y-50855571D01*
X105942047Y-50807952D01*
X105894428Y-50760333D01*
X105846809Y-50665095D01*
X105846809Y-50569857D01*
X105894428Y-50474619D01*
X105942047Y-50427000D01*
X106037285Y-50379380D01*
X106275380Y-50379380D01*
X106418238Y-50427000D01*
X106703952Y-50379380D02*
X107275380Y-50379380D01*
X106989666Y-51379380D02*
X106989666Y-50379380D01*
X107561095Y-51093666D02*
X108037285Y-51093666D01*
X107465857Y-51379380D02*
X107799190Y-50379380D01*
X108132523Y-51379380D01*
X109037285Y-51379380D02*
X108703952Y-50903190D01*
X108465857Y-51379380D02*
X108465857Y-50379380D01*
X108846809Y-50379380D01*
X108942047Y-50427000D01*
X108989666Y-50474619D01*
X109037285Y-50569857D01*
X109037285Y-50712714D01*
X108989666Y-50807952D01*
X108942047Y-50855571D01*
X108846809Y-50903190D01*
X108465857Y-50903190D01*
X109323000Y-50379380D02*
X109894428Y-50379380D01*
X109608714Y-51379380D02*
X109608714Y-50379380D01*
X105664214Y-46108880D02*
X105664214Y-45108880D01*
X105664214Y-45585071D02*
X106235642Y-45585071D01*
X106235642Y-46108880D02*
X106235642Y-45108880D01*
X106902309Y-45108880D02*
X107092785Y-45108880D01*
X107188023Y-45156500D01*
X107283261Y-45251738D01*
X107330880Y-45442214D01*
X107330880Y-45775547D01*
X107283261Y-45966023D01*
X107188023Y-46061261D01*
X107092785Y-46108880D01*
X106902309Y-46108880D01*
X106807071Y-46061261D01*
X106711833Y-45966023D01*
X106664214Y-45775547D01*
X106664214Y-45442214D01*
X106711833Y-45251738D01*
X106807071Y-45156500D01*
X106902309Y-45108880D01*
X108235642Y-46108880D02*
X107759452Y-46108880D01*
X107759452Y-45108880D01*
X108568976Y-46108880D02*
X108568976Y-45108880D01*
X108807071Y-45108880D01*
X108949928Y-45156500D01*
X109045166Y-45251738D01*
X109092785Y-45346976D01*
X109140404Y-45537452D01*
X109140404Y-45680309D01*
X109092785Y-45870785D01*
X109045166Y-45966023D01*
X108949928Y-46061261D01*
X108807071Y-46108880D01*
X108568976Y-46108880D01*
X95329761Y-98702880D02*
X95996428Y-99702880D01*
X95996428Y-98702880D02*
X95329761Y-99702880D01*
X97091666Y-99655261D02*
X97234523Y-99702880D01*
X97472619Y-99702880D01*
X97567857Y-99655261D01*
X97615476Y-99607642D01*
X97663095Y-99512404D01*
X97663095Y-99417166D01*
X97615476Y-99321928D01*
X97567857Y-99274309D01*
X97472619Y-99226690D01*
X97282142Y-99179071D01*
X97186904Y-99131452D01*
X97139285Y-99083833D01*
X97091666Y-98988595D01*
X97091666Y-98893357D01*
X97139285Y-98798119D01*
X97186904Y-98750500D01*
X97282142Y-98702880D01*
X97520238Y-98702880D01*
X97663095Y-98750500D01*
X98091666Y-99179071D02*
X98425000Y-99179071D01*
X98567857Y-99702880D02*
X98091666Y-99702880D01*
X98091666Y-98702880D01*
X98567857Y-98702880D01*
X99567857Y-99702880D02*
X99234523Y-99226690D01*
X98996428Y-99702880D02*
X98996428Y-98702880D01*
X99377380Y-98702880D01*
X99472619Y-98750500D01*
X99520238Y-98798119D01*
X99567857Y-98893357D01*
X99567857Y-99036214D01*
X99520238Y-99131452D01*
X99472619Y-99179071D01*
X99377380Y-99226690D01*
X98996428Y-99226690D01*
X99853571Y-98702880D02*
X100186904Y-99702880D01*
X100520238Y-98702880D01*
X101044047Y-98702880D02*
X101234523Y-98702880D01*
X101329761Y-98750500D01*
X101425000Y-98845738D01*
X101472619Y-99036214D01*
X101472619Y-99369547D01*
X101425000Y-99560023D01*
X101329761Y-99655261D01*
X101234523Y-99702880D01*
X101044047Y-99702880D01*
X100948809Y-99655261D01*
X100853571Y-99560023D01*
X100805952Y-99369547D01*
X100805952Y-99036214D01*
X100853571Y-98845738D01*
X100948809Y-98750500D01*
X101044047Y-98702880D01*
X95599595Y-93829190D02*
X95599595Y-94305380D01*
X95266261Y-93305380D02*
X95599595Y-93829190D01*
X95932928Y-93305380D01*
X96980547Y-94257761D02*
X97123404Y-94305380D01*
X97361500Y-94305380D01*
X97456738Y-94257761D01*
X97504357Y-94210142D01*
X97551976Y-94114904D01*
X97551976Y-94019666D01*
X97504357Y-93924428D01*
X97456738Y-93876809D01*
X97361500Y-93829190D01*
X97171023Y-93781571D01*
X97075785Y-93733952D01*
X97028166Y-93686333D01*
X96980547Y-93591095D01*
X96980547Y-93495857D01*
X97028166Y-93400619D01*
X97075785Y-93353000D01*
X97171023Y-93305380D01*
X97409119Y-93305380D01*
X97551976Y-93353000D01*
X97980547Y-93781571D02*
X98313880Y-93781571D01*
X98456738Y-94305380D02*
X97980547Y-94305380D01*
X97980547Y-93305380D01*
X98456738Y-93305380D01*
X99456738Y-94305380D02*
X99123404Y-93829190D01*
X98885309Y-94305380D02*
X98885309Y-93305380D01*
X99266261Y-93305380D01*
X99361500Y-93353000D01*
X99409119Y-93400619D01*
X99456738Y-93495857D01*
X99456738Y-93638714D01*
X99409119Y-93733952D01*
X99361500Y-93781571D01*
X99266261Y-93829190D01*
X98885309Y-93829190D01*
X99742452Y-93305380D02*
X100075785Y-94305380D01*
X100409119Y-93305380D01*
X100932928Y-93305380D02*
X101123404Y-93305380D01*
X101218642Y-93353000D01*
X101313880Y-93448238D01*
X101361500Y-93638714D01*
X101361500Y-93972047D01*
X101313880Y-94162523D01*
X101218642Y-94257761D01*
X101123404Y-94305380D01*
X100932928Y-94305380D01*
X100837690Y-94257761D01*
X100742452Y-94162523D01*
X100694833Y-93972047D01*
X100694833Y-93638714D01*
X100742452Y-93448238D01*
X100837690Y-93353000D01*
X100932928Y-93305380D01*
X95083785Y-88653880D02*
X95083785Y-87653880D01*
X95559976Y-88653880D02*
X95559976Y-87653880D01*
X96131404Y-88653880D01*
X96131404Y-87653880D01*
X96464738Y-87653880D02*
X97036166Y-87653880D01*
X96750452Y-88653880D02*
X96750452Y-87653880D01*
X97369500Y-88130071D02*
X97702833Y-88130071D01*
X97845690Y-88653880D02*
X97369500Y-88653880D01*
X97369500Y-87653880D01*
X97845690Y-87653880D01*
X98845690Y-88653880D02*
X98512357Y-88177690D01*
X98274261Y-88653880D02*
X98274261Y-87653880D01*
X98655214Y-87653880D01*
X98750452Y-87701500D01*
X98798071Y-87749119D01*
X98845690Y-87844357D01*
X98845690Y-87987214D01*
X98798071Y-88082452D01*
X98750452Y-88130071D01*
X98655214Y-88177690D01*
X98274261Y-88177690D01*
X99750452Y-88653880D02*
X99274261Y-88653880D01*
X99274261Y-87653880D01*
X100274261Y-87653880D02*
X100464738Y-87653880D01*
X100559976Y-87701500D01*
X100655214Y-87796738D01*
X100702833Y-87987214D01*
X100702833Y-88320547D01*
X100655214Y-88511023D01*
X100559976Y-88606261D01*
X100464738Y-88653880D01*
X100274261Y-88653880D01*
X100179023Y-88606261D01*
X100083785Y-88511023D01*
X100036166Y-88320547D01*
X100036166Y-87987214D01*
X100083785Y-87796738D01*
X100179023Y-87701500D01*
X100274261Y-87653880D01*
X101702833Y-88558642D02*
X101655214Y-88606261D01*
X101512357Y-88653880D01*
X101417119Y-88653880D01*
X101274261Y-88606261D01*
X101179023Y-88511023D01*
X101131404Y-88415785D01*
X101083785Y-88225309D01*
X101083785Y-88082452D01*
X101131404Y-87891976D01*
X101179023Y-87796738D01*
X101274261Y-87701500D01*
X101417119Y-87653880D01*
X101512357Y-87653880D01*
X101655214Y-87701500D01*
X101702833Y-87749119D01*
X102131404Y-88653880D02*
X102131404Y-87653880D01*
X102702833Y-88653880D02*
X102274261Y-88082452D01*
X102702833Y-87653880D02*
X102131404Y-88225309D01*
X107973880Y-69865833D02*
X108973880Y-69199166D01*
X107973880Y-69199166D02*
X108973880Y-69865833D01*
X107973880Y-72405833D02*
X108973880Y-71739166D01*
X107973880Y-71739166D02*
X108973880Y-72405833D01*
X108370690Y-74676000D02*
X108846880Y-74676000D01*
X107846880Y-75009333D02*
X108370690Y-74676000D01*
X107846880Y-74342666D01*
X108434190Y-77343000D02*
X108910380Y-77343000D01*
X107910380Y-77676333D02*
X108434190Y-77343000D01*
X107910380Y-77009666D01*
X107910380Y-80089333D02*
X107910380Y-79422666D01*
X108910380Y-80089333D01*
X108910380Y-79422666D01*
X110751880Y-75953738D02*
X110751880Y-76429928D01*
X109751880Y-76429928D01*
X110751880Y-75620404D02*
X109751880Y-75620404D01*
X110751880Y-75144214D02*
X109751880Y-75144214D01*
X110466166Y-74810880D01*
X109751880Y-74477547D01*
X110751880Y-74477547D01*
X110751880Y-74001357D02*
X109751880Y-74001357D01*
X109751880Y-73668023D02*
X109751880Y-73096595D01*
X110751880Y-73382309D02*
X109751880Y-73382309D01*
X110704261Y-72810880D02*
X110751880Y-72668023D01*
X110751880Y-72429928D01*
X110704261Y-72334690D01*
X110656642Y-72287071D01*
X110561404Y-72239452D01*
X110466166Y-72239452D01*
X110370928Y-72287071D01*
X110323309Y-72334690D01*
X110275690Y-72429928D01*
X110228071Y-72620404D01*
X110180452Y-72715642D01*
X110132833Y-72763261D01*
X110037595Y-72810880D01*
X109942357Y-72810880D01*
X109847119Y-72763261D01*
X109799500Y-72715642D01*
X109751880Y-72620404D01*
X109751880Y-72382309D01*
X109799500Y-72239452D01*
X71262976Y-126928571D02*
X70929642Y-126928571D01*
X70929642Y-127452380D02*
X70929642Y-126452380D01*
X71405833Y-126452380D01*
X71739166Y-127166666D02*
X72215357Y-127166666D01*
X71643928Y-127452380D02*
X71977261Y-126452380D01*
X72310595Y-127452380D01*
X72643928Y-127452380D02*
X72643928Y-126452380D01*
X73215357Y-127452380D01*
X73215357Y-126452380D01*
X91654261Y-133333761D02*
X91701880Y-133190904D01*
X91701880Y-132952809D01*
X91654261Y-132857571D01*
X91606642Y-132809952D01*
X91511404Y-132762333D01*
X91416166Y-132762333D01*
X91320928Y-132809952D01*
X91273309Y-132857571D01*
X91225690Y-132952809D01*
X91178071Y-133143285D01*
X91130452Y-133238523D01*
X91082833Y-133286142D01*
X90987595Y-133333761D01*
X90892357Y-133333761D01*
X90797119Y-133286142D01*
X90749500Y-133238523D01*
X90701880Y-133143285D01*
X90701880Y-132905190D01*
X90749500Y-132762333D01*
X91701880Y-132333761D02*
X90701880Y-132333761D01*
X90701880Y-131952809D01*
X90749500Y-131857571D01*
X90797119Y-131809952D01*
X90892357Y-131762333D01*
X91035214Y-131762333D01*
X91130452Y-131809952D01*
X91178071Y-131857571D01*
X91225690Y-131952809D01*
X91225690Y-132333761D01*
X91701880Y-131333761D02*
X90701880Y-131333761D01*
X91701880Y-130857571D02*
X90701880Y-130857571D01*
X91701880Y-130286142D01*
X90701880Y-130286142D01*
X91701880Y-129809952D02*
X90701880Y-129809952D01*
X90701880Y-129571857D01*
X90749500Y-129429000D01*
X90844738Y-129333761D01*
X90939976Y-129286142D01*
X91130452Y-129238523D01*
X91273309Y-129238523D01*
X91463785Y-129286142D01*
X91559023Y-129333761D01*
X91654261Y-129429000D01*
X91701880Y-129571857D01*
X91701880Y-129809952D01*
X91701880Y-128333761D02*
X91701880Y-128809952D01*
X90701880Y-128809952D01*
X91178071Y-128000428D02*
X91178071Y-127667095D01*
X91701880Y-127524238D02*
X91701880Y-128000428D01*
X90701880Y-128000428D01*
X90701880Y-127524238D01*
X65095428Y-134000238D02*
X65095428Y-133238333D01*
X65476380Y-133619285D02*
X64714476Y-133619285D01*
X65476380Y-131476428D02*
X65476380Y-132047857D01*
X65476380Y-131762142D02*
X64476380Y-131762142D01*
X64619238Y-131857380D01*
X64714476Y-131952619D01*
X64762095Y-132047857D01*
X64571619Y-131095476D02*
X64524000Y-131047857D01*
X64476380Y-130952619D01*
X64476380Y-130714523D01*
X64524000Y-130619285D01*
X64571619Y-130571666D01*
X64666857Y-130524047D01*
X64762095Y-130524047D01*
X64904952Y-130571666D01*
X65476380Y-131143095D01*
X65476380Y-130524047D01*
X65095428Y-130095476D02*
X65095428Y-129333571D01*
X65476380Y-128333571D02*
X65476380Y-128905000D01*
X65476380Y-128619285D02*
X64476380Y-128619285D01*
X64619238Y-128714523D01*
X64714476Y-128809761D01*
X64762095Y-128905000D01*
X64904952Y-127762142D02*
X64857333Y-127857380D01*
X64809714Y-127905000D01*
X64714476Y-127952619D01*
X64666857Y-127952619D01*
X64571619Y-127905000D01*
X64524000Y-127857380D01*
X64476380Y-127762142D01*
X64476380Y-127571666D01*
X64524000Y-127476428D01*
X64571619Y-127428809D01*
X64666857Y-127381190D01*
X64714476Y-127381190D01*
X64809714Y-127428809D01*
X64857333Y-127476428D01*
X64904952Y-127571666D01*
X64904952Y-127762142D01*
X64952571Y-127857380D01*
X65000190Y-127905000D01*
X65095428Y-127952619D01*
X65285904Y-127952619D01*
X65381142Y-127905000D01*
X65428761Y-127857380D01*
X65476380Y-127762142D01*
X65476380Y-127571666D01*
X65428761Y-127476428D01*
X65381142Y-127428809D01*
X65285904Y-127381190D01*
X65095428Y-127381190D01*
X65000190Y-127428809D01*
X64952571Y-127476428D01*
X64904952Y-127571666D01*
X64476380Y-127095476D02*
X65476380Y-126762142D01*
X64476380Y-126428809D01*
X65476380Y-125333571D02*
X64476380Y-125333571D01*
X64476380Y-125095476D01*
X64524000Y-124952619D01*
X64619238Y-124857380D01*
X64714476Y-124809761D01*
X64904952Y-124762142D01*
X65047809Y-124762142D01*
X65238285Y-124809761D01*
X65333523Y-124857380D01*
X65428761Y-124952619D01*
X65476380Y-125095476D01*
X65476380Y-125333571D01*
X65381142Y-123762142D02*
X65428761Y-123809761D01*
X65476380Y-123952619D01*
X65476380Y-124047857D01*
X65428761Y-124190714D01*
X65333523Y-124285952D01*
X65238285Y-124333571D01*
X65047809Y-124381190D01*
X64904952Y-124381190D01*
X64714476Y-124333571D01*
X64619238Y-124285952D01*
X64524000Y-124190714D01*
X64476380Y-124047857D01*
X64476380Y-123952619D01*
X64524000Y-123809761D01*
X64571619Y-123762142D01*
D11*
X115000000Y-135000000D02*
X115000000Y-35000000D01*
X15000000Y-135000000D02*
X115000000Y-135000000D01*
X15000000Y-35000000D02*
X15000000Y-135000000D01*
X15000000Y-35000000D02*
X115000000Y-35000000D01*
X74000000Y-66070000D02*
X72000000Y-66070000D01*
X72000000Y-63930000D02*
X74000000Y-63930000D01*
D12*
X71550000Y-67425000D02*
X71550000Y-67600000D01*
X74450000Y-67425000D02*
X71550000Y-67425000D01*
X74450000Y-67600000D02*
X74450000Y-67425000D01*
X71550000Y-70575000D02*
X71550000Y-70375000D01*
X74450000Y-70575000D02*
X71550000Y-70575000D01*
X74450000Y-70400000D02*
X74450000Y-70575000D01*
D13*
X75305000Y-70655000D02*
G75*
G03X75305000Y-70655000I-150000J0D01*
G01*
D11*
X79350000Y-116900000D02*
X82650000Y-116900000D01*
X82650000Y-116900000D02*
X82650000Y-110000000D01*
X79350000Y-116900000D02*
X79350000Y-110000000D01*
X65277000Y-111100000D02*
X61977000Y-111100000D01*
X61977000Y-111100000D02*
X61977000Y-118000000D01*
X65277000Y-111100000D02*
X65277000Y-118000000D01*
X58933000Y-91187000D02*
X58933000Y-94487000D01*
X58933000Y-94487000D02*
X65833000Y-94487000D01*
X58933000Y-91187000D02*
X65833000Y-91187000D01*
X37119000Y-46738000D02*
X37119000Y-48918000D01*
X37119000Y-53338000D02*
X37119000Y-51158000D01*
X43719000Y-47498000D02*
X43719000Y-48918000D01*
X43719000Y-52578000D02*
X43719000Y-51158000D01*
X37119000Y-46738000D02*
X42959000Y-46738000D01*
X42959000Y-46738000D02*
X43719000Y-47498000D01*
X43719000Y-52578000D02*
X42959000Y-53338000D01*
X42959000Y-53338000D02*
X37119000Y-53338000D01*
X37246000Y-81790000D02*
X37246000Y-83970000D01*
X37246000Y-88390000D02*
X37246000Y-86210000D01*
X43846000Y-82550000D02*
X43846000Y-83970000D01*
X43846000Y-87630000D02*
X43846000Y-86210000D01*
X37246000Y-81790000D02*
X43086000Y-81790000D01*
X43086000Y-81790000D02*
X43846000Y-82550000D01*
X43846000Y-87630000D02*
X43086000Y-88390000D01*
X43086000Y-88390000D02*
X37246000Y-88390000D01*
X37246000Y-116969000D02*
X37246000Y-119149000D01*
X37246000Y-123569000D02*
X37246000Y-121389000D01*
X43846000Y-117729000D02*
X43846000Y-119149000D01*
X43846000Y-122809000D02*
X43846000Y-121389000D01*
X37246000Y-116969000D02*
X43086000Y-116969000D01*
X43086000Y-116969000D02*
X43846000Y-117729000D01*
X43846000Y-122809000D02*
X43086000Y-123569000D01*
X43086000Y-123569000D02*
X37246000Y-123569000D01*
X37246000Y-99697000D02*
X37246000Y-101877000D01*
X37246000Y-106297000D02*
X37246000Y-104117000D01*
X43846000Y-100457000D02*
X43846000Y-101877000D01*
X43846000Y-105537000D02*
X43846000Y-104117000D01*
X37246000Y-99697000D02*
X43086000Y-99697000D01*
X43086000Y-99697000D02*
X43846000Y-100457000D01*
X43846000Y-105537000D02*
X43086000Y-106297000D01*
X43086000Y-106297000D02*
X37246000Y-106297000D01*
X36992000Y-64391000D02*
X36992000Y-66571000D01*
X36992000Y-70991000D02*
X36992000Y-68811000D01*
X43592000Y-65151000D02*
X43592000Y-66571000D01*
X43592000Y-70231000D02*
X43592000Y-68811000D01*
X36992000Y-64391000D02*
X42832000Y-64391000D01*
X42832000Y-64391000D02*
X43592000Y-65151000D01*
X43592000Y-70231000D02*
X42832000Y-70991000D01*
X42832000Y-70991000D02*
X36992000Y-70991000D01*
D12*
X59151200Y-89224800D02*
X59151200Y-34824800D01*
X59151200Y-34824800D02*
X87051200Y-34824800D01*
X87051200Y-34824800D02*
X87051200Y-89224800D01*
X87051200Y-89224800D02*
X59151200Y-89224800D01*
D13*
X25448000Y-58311000D02*
G75*
G03X25448000Y-58311000I-100000J0D01*
G01*
D12*
X44958000Y-57531000D02*
X24638000Y-57531000D01*
X44958000Y-42291000D02*
X44958000Y-57531000D01*
X24638000Y-42291000D02*
X44958000Y-42291000D01*
X24638000Y-57531000D02*
X24638000Y-42291000D01*
D13*
X25575000Y-128400000D02*
G75*
G03X25575000Y-128400000I-100000J0D01*
G01*
D12*
X45085000Y-127620000D02*
X24765000Y-127620000D01*
X45085000Y-112380000D02*
X45085000Y-127620000D01*
X24765000Y-112380000D02*
X45085000Y-112380000D01*
X24765000Y-127620000D02*
X24765000Y-112380000D01*
D13*
X25556000Y-93231000D02*
G75*
G03X25556000Y-93231000I-100000J0D01*
G01*
D12*
X45066000Y-92451000D02*
X24746000Y-92451000D01*
X45066000Y-77211000D02*
X45066000Y-92451000D01*
X24746000Y-77211000D02*
X45066000Y-77211000D01*
X24746000Y-92451000D02*
X24746000Y-77211000D01*
D11*
X106867000Y-68329500D02*
X101667000Y-68329500D01*
X106867000Y-78549500D02*
X106867000Y-68329500D01*
X101667000Y-81149500D02*
X101667000Y-68329500D01*
X106867000Y-78549500D02*
X104267000Y-78549500D01*
X104267000Y-78549500D02*
X104267000Y-81149500D01*
X104267000Y-81149500D02*
X101667000Y-81149500D01*
X106867000Y-79819500D02*
X106867000Y-81149500D01*
X106867000Y-81149500D02*
X105537000Y-81149500D01*
X74742800Y-115719200D02*
X76742800Y-115719200D01*
X76742800Y-117859200D02*
X74742800Y-117859200D01*
X47768000Y-123263000D02*
X49768000Y-123263000D01*
X49768000Y-125403000D02*
X47768000Y-125403000D01*
X80370000Y-105760000D02*
X81300000Y-105760000D01*
X83530000Y-105760000D02*
X82600000Y-105760000D01*
X83530000Y-105760000D02*
X83530000Y-103600000D01*
X80370000Y-105760000D02*
X80370000Y-104300000D01*
D13*
X66255000Y-47250000D02*
X66255000Y-49750000D01*
X67805000Y-35300000D02*
X66255000Y-35300000D01*
X79855000Y-49750000D02*
X66255000Y-49750000D01*
X79855000Y-35300000D02*
X79855000Y-36250000D01*
X79855000Y-35300000D02*
X78305000Y-35300000D01*
X79855000Y-47250000D02*
X79855000Y-49750000D01*
X66255000Y-35300000D02*
X66255000Y-36250000D01*
X67805000Y-35300000D02*
G75*
G03X78305000Y-35300000I5250000J9038537D01*
G01*
X68955000Y-39825000D02*
G75*
G03X68955000Y-39825000I-100000J0D01*
G01*
D11*
X65800000Y-115850000D02*
X65800000Y-117750000D01*
X65800000Y-117750000D02*
X70500000Y-117750000D01*
X65800000Y-115850000D02*
X70500000Y-115850000D01*
X51836000Y-129093000D02*
X51836000Y-127193000D01*
X51836000Y-127193000D02*
X47136000Y-127193000D01*
X51836000Y-129093000D02*
X47136000Y-129093000D01*
X102540000Y-118350000D02*
X102540000Y-115810000D01*
X98095000Y-115810000D02*
X101905000Y-113270000D01*
X100000000Y-113270000D02*
X100000000Y-114540000D01*
X94920000Y-118350000D02*
X94920000Y-115810000D01*
X94920000Y-115810000D02*
X98095000Y-115810000D01*
X86790000Y-116570000D02*
X87810000Y-115560000D01*
X87300000Y-112000000D02*
X86030000Y-112000000D01*
X87300000Y-114790000D02*
X87300000Y-112000000D01*
X87300000Y-119620000D02*
X87300000Y-117330000D01*
X86030000Y-119620000D02*
X87300000Y-119620000D01*
X87300000Y-117330000D02*
X86790000Y-117330000D01*
X86790000Y-117330000D02*
X86790000Y-114790000D01*
X86790000Y-114790000D02*
X87300000Y-114790000D01*
X87300000Y-114790000D02*
X87810000Y-114790000D01*
X87810000Y-114790000D02*
X87810000Y-117330000D01*
X87810000Y-117330000D02*
X87300000Y-117330000D01*
X83080000Y-121310000D02*
X104220000Y-121310000D01*
X104220000Y-121310000D02*
X104220000Y-110310000D01*
X83080000Y-121310000D02*
X83080000Y-110310000D01*
X83080000Y-110310000D02*
X104220000Y-110310000D01*
X98222000Y-115810000D02*
G75*
G03X98222000Y-115810000I-127000J0D01*
G01*
D12*
X71567000Y-73101000D02*
X71567000Y-73276000D01*
X74467000Y-73101000D02*
X71567000Y-73101000D01*
X74467000Y-73276000D02*
X74467000Y-73101000D01*
X71567000Y-76251000D02*
X71567000Y-76051000D01*
X74467000Y-76251000D02*
X71567000Y-76251000D01*
X74467000Y-76076000D02*
X74467000Y-76251000D01*
D13*
X75322000Y-76331000D02*
G75*
G03X75322000Y-76331000I-150000J0D01*
G01*
X25556000Y-111143000D02*
G75*
G03X25556000Y-111143000I-100000J0D01*
G01*
D12*
X45066000Y-110363000D02*
X24746000Y-110363000D01*
X45066000Y-95123000D02*
X45066000Y-110363000D01*
X24746000Y-95123000D02*
X45066000Y-95123000D01*
X24746000Y-110363000D02*
X24746000Y-95123000D01*
D13*
X25448000Y-75871000D02*
G75*
G03X25448000Y-75871000I-100000J0D01*
G01*
D12*
X44958000Y-75091000D02*
X24638000Y-75091000D01*
X44958000Y-59851000D02*
X44958000Y-75091000D01*
X24638000Y-59851000D02*
X44958000Y-59851000D01*
X24638000Y-75091000D02*
X24638000Y-59851000D01*
D11*
X20634000Y-114494000D02*
X17974000Y-114494000D01*
X20634000Y-122174000D02*
X20634000Y-114494000D01*
X17974000Y-122174000D02*
X17974000Y-114494000D01*
X20634000Y-122174000D02*
X17974000Y-122174000D01*
X20634000Y-123444000D02*
X20634000Y-124774000D01*
X20634000Y-124774000D02*
X19304000Y-124774000D01*
X20507000Y-97603000D02*
X17847000Y-97603000D01*
X20507000Y-105283000D02*
X20507000Y-97603000D01*
X17847000Y-105283000D02*
X17847000Y-97603000D01*
X20507000Y-105283000D02*
X17847000Y-105283000D01*
X20507000Y-106553000D02*
X20507000Y-107883000D01*
X20507000Y-107883000D02*
X19177000Y-107883000D01*
X20507000Y-62043000D02*
X17847000Y-62043000D01*
X20507000Y-69723000D02*
X20507000Y-62043000D01*
X17847000Y-69723000D02*
X17847000Y-62043000D01*
X20507000Y-69723000D02*
X17847000Y-69723000D01*
X20507000Y-70993000D02*
X20507000Y-72323000D01*
X20507000Y-72323000D02*
X19177000Y-72323000D01*
X20316500Y-79823000D02*
X17656500Y-79823000D01*
X20316500Y-87503000D02*
X20316500Y-79823000D01*
X17656500Y-87503000D02*
X17656500Y-79823000D01*
X20316500Y-87503000D02*
X17656500Y-87503000D01*
X20316500Y-88773000D02*
X20316500Y-90103000D01*
X20316500Y-90103000D02*
X18986500Y-90103000D01*
X20507000Y-44771000D02*
X17847000Y-44771000D01*
X20507000Y-52451000D02*
X20507000Y-44771000D01*
X17847000Y-52451000D02*
X17847000Y-44771000D01*
X20507000Y-52451000D02*
X17847000Y-52451000D01*
X20507000Y-53721000D02*
X20507000Y-55051000D01*
X20507000Y-55051000D02*
X19177000Y-55051000D01*
X94618500Y-95190000D02*
X94618500Y-97850000D01*
X99758500Y-95190000D02*
X94618500Y-95190000D01*
X99758500Y-97850000D02*
X94618500Y-97850000D01*
X99758500Y-95190000D02*
X99758500Y-97850000D01*
X101028500Y-95190000D02*
X102358500Y-95190000D01*
X102358500Y-95190000D02*
X102358500Y-96520000D01*
X94618500Y-100524000D02*
X94618500Y-103184000D01*
X99758500Y-100524000D02*
X94618500Y-100524000D01*
X99758500Y-103184000D02*
X94618500Y-103184000D01*
X99758500Y-100524000D02*
X99758500Y-103184000D01*
X101028500Y-100524000D02*
X102358500Y-100524000D01*
X102358500Y-100524000D02*
X102358500Y-101854000D01*
X94555000Y-89602000D02*
X94555000Y-92262000D01*
X102235000Y-89602000D02*
X94555000Y-89602000D01*
X102235000Y-92262000D02*
X94555000Y-92262000D01*
X102235000Y-89602000D02*
X102235000Y-92262000D01*
X103505000Y-89602000D02*
X104835000Y-89602000D01*
X104835000Y-89602000D02*
X104835000Y-90932000D01*
X88584440Y-89269360D02*
X91244440Y-89269360D01*
X88584440Y-43489360D02*
X88584440Y-89269360D01*
X91244440Y-43489360D02*
X91244440Y-89269360D01*
X88584440Y-43489360D02*
X91244440Y-43489360D01*
X88584440Y-42219360D02*
X88584440Y-40889360D01*
X88584440Y-40889360D02*
X89914440Y-40889360D01*
X74736000Y-125345500D02*
X74736000Y-122685500D01*
X72136000Y-125345500D02*
X74736000Y-125345500D01*
X72136000Y-122685500D02*
X74736000Y-122685500D01*
X72136000Y-125345500D02*
X72136000Y-122685500D01*
X70866000Y-125345500D02*
X69536000Y-125345500D01*
X69536000Y-125345500D02*
X69536000Y-124015500D01*
X54482400Y-89214000D02*
X57142400Y-89214000D01*
X54482400Y-43434000D02*
X54482400Y-89214000D01*
X57142400Y-43434000D02*
X57142400Y-89214000D01*
X54482400Y-43434000D02*
X57142400Y-43434000D01*
X54482400Y-42164000D02*
X54482400Y-40834000D01*
X54482400Y-40834000D02*
X55812400Y-40834000D01*
X104457000Y-44430000D02*
X101797000Y-44430000D01*
X104457000Y-62270000D02*
X104457000Y-44430000D01*
X101797000Y-62270000D02*
X101797000Y-44430000D01*
X104457000Y-62270000D02*
X101797000Y-62270000D01*
X104457000Y-63540000D02*
X104457000Y-64870000D01*
X104457000Y-64870000D02*
X103127000Y-64870000D01*
X59000000Y-115980000D02*
X57000000Y-115980000D01*
X57000000Y-118020000D02*
X59000000Y-118020000D01*
X59000000Y-112980000D02*
X57000000Y-112980000D01*
X57000000Y-115020000D02*
X59000000Y-115020000D01*
X65020000Y-107000000D02*
X65020000Y-105000000D01*
X62980000Y-105000000D02*
X62980000Y-107000000D01*
X68980000Y-105000000D02*
X68980000Y-107000000D01*
X71020000Y-107000000D02*
X71020000Y-105000000D01*
X98100000Y-59950000D02*
X98100000Y-58050000D01*
X98100000Y-58050000D02*
X93400000Y-58050000D01*
X98100000Y-59950000D02*
X93400000Y-59950000D01*
X98100000Y-54036000D02*
X93400000Y-54036000D01*
X98100000Y-52136000D02*
X93400000Y-52136000D01*
X98100000Y-54036000D02*
X98100000Y-52136000D01*
X98077200Y-49514800D02*
X98077200Y-47614800D01*
X98077200Y-47614800D02*
X93377200Y-47614800D01*
X98077200Y-49514800D02*
X93377200Y-49514800D01*
X98128000Y-44982000D02*
X93428000Y-44982000D01*
X98128000Y-43082000D02*
X93428000Y-43082000D01*
X98128000Y-44982000D02*
X98128000Y-43082000D01*
X98252400Y-70642400D02*
X93552400Y-70642400D01*
X98252400Y-68742400D02*
X93552400Y-68742400D01*
X98252400Y-70642400D02*
X98252400Y-68742400D01*
X98201600Y-77236000D02*
X98201600Y-75336000D01*
X98201600Y-75336000D02*
X93501600Y-75336000D01*
X98201600Y-77236000D02*
X93501600Y-77236000D01*
X98201600Y-84236000D02*
X93501600Y-84236000D01*
X98201600Y-82336000D02*
X93501600Y-82336000D01*
X98201600Y-84236000D02*
X98201600Y-82336000D01*
X63650000Y-134900000D02*
X63650000Y-122300000D01*
X63650000Y-122300000D02*
X53300000Y-122300000D01*
X53300000Y-122300000D02*
X53300000Y-123250000D01*
X53300000Y-123250000D02*
X52800000Y-123000000D01*
X52800000Y-123000000D02*
X52800000Y-124900000D01*
X52800000Y-124900000D02*
X52800000Y-124950000D01*
X52800000Y-124950000D02*
X53300000Y-124700000D01*
X53300000Y-124700000D02*
X53300000Y-130100000D01*
X53300000Y-130100000D02*
X52800000Y-129800000D01*
X52800000Y-129800000D02*
X52800000Y-134900000D01*
X52800000Y-134900000D02*
X63650000Y-134900000D01*
X92800000Y-134900000D02*
X103650000Y-134900000D01*
X92800000Y-129800000D02*
X92800000Y-134900000D01*
X93300000Y-130100000D02*
X92800000Y-129800000D01*
X93300000Y-124700000D02*
X93300000Y-130100000D01*
X92800000Y-124950000D02*
X93300000Y-124700000D01*
X92800000Y-124900000D02*
X92800000Y-124950000D01*
X92800000Y-123000000D02*
X92800000Y-124900000D01*
X93300000Y-123250000D02*
X92800000Y-123000000D01*
X93300000Y-122300000D02*
X93300000Y-123250000D01*
X103650000Y-122300000D02*
X93300000Y-122300000D01*
X103650000Y-134900000D02*
X103650000Y-122300000D01*
D10*
X72400000Y-107250000D02*
X72400000Y-104250000D01*
X75600000Y-104250000D02*
X75600000Y-107250000D01*
X75600000Y-108350000D02*
X75600000Y-109100000D01*
X75600000Y-109100000D02*
X74950000Y-109100000D01*
D11*
X94000000Y-60271000D02*
X96000000Y-60271000D01*
X96000000Y-62411000D02*
X94000000Y-62411000D01*
X96000000Y-56442000D02*
X94000000Y-56442000D01*
X94000000Y-54302000D02*
X96000000Y-54302000D01*
X93977200Y-49730000D02*
X95977200Y-49730000D01*
X95977200Y-51870000D02*
X93977200Y-51870000D01*
X94028000Y-45208800D02*
X96028000Y-45208800D01*
X96028000Y-47348800D02*
X94028000Y-47348800D01*
X54981500Y-101013000D02*
X54981500Y-103013000D01*
X52841500Y-103013000D02*
X52841500Y-101013000D01*
X96152400Y-73079000D02*
X94152400Y-73079000D01*
X94152400Y-70939000D02*
X96152400Y-70939000D01*
X68070000Y-105000000D02*
X68070000Y-107000000D01*
X65930000Y-107000000D02*
X65930000Y-105000000D01*
X94101600Y-77543000D02*
X96101600Y-77543000D01*
X96101600Y-79683000D02*
X94101600Y-79683000D01*
X56930000Y-103000000D02*
X56930000Y-101000000D01*
X59070000Y-101000000D02*
X59070000Y-103000000D01*
X96101600Y-86668000D02*
X94101600Y-86668000D01*
X94101600Y-84528000D02*
X96101600Y-84528000D01*
X59930000Y-103000000D02*
X59930000Y-101000000D01*
X62070000Y-101000000D02*
X62070000Y-103000000D01*
X64970000Y-68183000D02*
X64970000Y-66183000D01*
X67110000Y-66183000D02*
X67110000Y-68183000D01*
X81607000Y-94821000D02*
X81607000Y-92821000D01*
X83747000Y-92821000D02*
X83747000Y-94821000D01*
D12*
X60000000Y-111500000D02*
X56000000Y-111500000D01*
X56000000Y-111500000D02*
X56000000Y-111400000D01*
X60000000Y-111500000D02*
X60000000Y-111400000D01*
X60000000Y-106500000D02*
X56000000Y-106500000D01*
X60000000Y-106600000D02*
X60000000Y-106500000D01*
X56000000Y-106600000D02*
X56000000Y-106500000D01*
D13*
X60767000Y-111740000D02*
G75*
G03X60767000Y-111740000I-100000J0D01*
G01*
D10*
X72833333Y-63602380D02*
X72500000Y-63126190D01*
X72261904Y-63602380D02*
X72261904Y-62602380D01*
X72642857Y-62602380D01*
X72738095Y-62650000D01*
X72785714Y-62697619D01*
X72833333Y-62792857D01*
X72833333Y-62935714D01*
X72785714Y-63030952D01*
X72738095Y-63078571D01*
X72642857Y-63126190D01*
X72261904Y-63126190D01*
X73309523Y-63602380D02*
X73500000Y-63602380D01*
X73595238Y-63554761D01*
X73642857Y-63507142D01*
X73738095Y-63364285D01*
X73785714Y-63173809D01*
X73785714Y-62792857D01*
X73738095Y-62697619D01*
X73690476Y-62650000D01*
X73595238Y-62602380D01*
X73404761Y-62602380D01*
X73309523Y-62650000D01*
X73261904Y-62697619D01*
X73214285Y-62792857D01*
X73214285Y-63030952D01*
X73261904Y-63126190D01*
X73309523Y-63173809D01*
X73404761Y-63221428D01*
X73595238Y-63221428D01*
X73690476Y-63173809D01*
X73738095Y-63126190D01*
X73785714Y-63030952D01*
X72198131Y-71079328D02*
X72198131Y-71890407D01*
X72245842Y-71985828D01*
X72293552Y-72033539D01*
X72388973Y-72081249D01*
X72579815Y-72081249D01*
X72675236Y-72033539D01*
X72722947Y-71985828D01*
X72770657Y-71890407D01*
X72770657Y-71079328D01*
X73200052Y-71174750D02*
X73247763Y-71127039D01*
X73343184Y-71079328D01*
X73581736Y-71079328D01*
X73677157Y-71127039D01*
X73724868Y-71174750D01*
X73772578Y-71270171D01*
X73772578Y-71365592D01*
X73724868Y-71508723D01*
X73152342Y-72081249D01*
X73772578Y-72081249D01*
X78952380Y-113714285D02*
X77952380Y-113714285D01*
X77952380Y-113476190D01*
X78000000Y-113333333D01*
X78095238Y-113238095D01*
X78190476Y-113190476D01*
X78380952Y-113142857D01*
X78523809Y-113142857D01*
X78714285Y-113190476D01*
X78809523Y-113238095D01*
X78904761Y-113333333D01*
X78952380Y-113476190D01*
X78952380Y-113714285D01*
X78952380Y-112190476D02*
X78952380Y-112761904D01*
X78952380Y-112476190D02*
X77952380Y-112476190D01*
X78095238Y-112571428D01*
X78190476Y-112666666D01*
X78238095Y-112761904D01*
X77952380Y-111857142D02*
X77952380Y-111238095D01*
X78333333Y-111571428D01*
X78333333Y-111428571D01*
X78380952Y-111333333D01*
X78428571Y-111285714D01*
X78523809Y-111238095D01*
X78761904Y-111238095D01*
X78857142Y-111285714D01*
X78904761Y-111333333D01*
X78952380Y-111428571D01*
X78952380Y-111714285D01*
X78904761Y-111809523D01*
X78857142Y-111857142D01*
X66746380Y-113482285D02*
X65746380Y-113482285D01*
X65746380Y-113244190D01*
X65794000Y-113101333D01*
X65889238Y-113006095D01*
X65984476Y-112958476D01*
X66174952Y-112910857D01*
X66317809Y-112910857D01*
X66508285Y-112958476D01*
X66603523Y-113006095D01*
X66698761Y-113101333D01*
X66746380Y-113244190D01*
X66746380Y-113482285D01*
X66746380Y-111958476D02*
X66746380Y-112529904D01*
X66746380Y-112244190D02*
X65746380Y-112244190D01*
X65889238Y-112339428D01*
X65984476Y-112434666D01*
X66032095Y-112529904D01*
X65746380Y-111339428D02*
X65746380Y-111244190D01*
X65794000Y-111148952D01*
X65841619Y-111101333D01*
X65936857Y-111053714D01*
X66127333Y-111006095D01*
X66365428Y-111006095D01*
X66555904Y-111053714D01*
X66651142Y-111101333D01*
X66698761Y-111148952D01*
X66746380Y-111244190D01*
X66746380Y-111339428D01*
X66698761Y-111434666D01*
X66651142Y-111482285D01*
X66555904Y-111529904D01*
X66365428Y-111577523D01*
X66127333Y-111577523D01*
X65936857Y-111529904D01*
X65841619Y-111482285D01*
X65794000Y-111434666D01*
X65746380Y-111339428D01*
X62594904Y-90789380D02*
X62594904Y-89789380D01*
X62833000Y-89789380D01*
X62975857Y-89837000D01*
X63071095Y-89932238D01*
X63118714Y-90027476D01*
X63166333Y-90217952D01*
X63166333Y-90360809D01*
X63118714Y-90551285D01*
X63071095Y-90646523D01*
X62975857Y-90741761D01*
X62833000Y-90789380D01*
X62594904Y-90789380D01*
X63642523Y-90789380D02*
X63833000Y-90789380D01*
X63928238Y-90741761D01*
X63975857Y-90694142D01*
X64071095Y-90551285D01*
X64118714Y-90360809D01*
X64118714Y-89979857D01*
X64071095Y-89884619D01*
X64023476Y-89837000D01*
X63928238Y-89789380D01*
X63737761Y-89789380D01*
X63642523Y-89837000D01*
X63594904Y-89884619D01*
X63547285Y-89979857D01*
X63547285Y-90217952D01*
X63594904Y-90313190D01*
X63642523Y-90360809D01*
X63737761Y-90408428D01*
X63928238Y-90408428D01*
X64023476Y-90360809D01*
X64071095Y-90313190D01*
X64118714Y-90217952D01*
X40252333Y-45835142D02*
X40204714Y-45882761D01*
X40061857Y-45930380D01*
X39966619Y-45930380D01*
X39823761Y-45882761D01*
X39728523Y-45787523D01*
X39680904Y-45692285D01*
X39633285Y-45501809D01*
X39633285Y-45358952D01*
X39680904Y-45168476D01*
X39728523Y-45073238D01*
X39823761Y-44978000D01*
X39966619Y-44930380D01*
X40061857Y-44930380D01*
X40204714Y-44978000D01*
X40252333Y-45025619D01*
X41157095Y-44930380D02*
X40680904Y-44930380D01*
X40633285Y-45406571D01*
X40680904Y-45358952D01*
X40776142Y-45311333D01*
X41014238Y-45311333D01*
X41109476Y-45358952D01*
X41157095Y-45406571D01*
X41204714Y-45501809D01*
X41204714Y-45739904D01*
X41157095Y-45835142D01*
X41109476Y-45882761D01*
X41014238Y-45930380D01*
X40776142Y-45930380D01*
X40680904Y-45882761D01*
X40633285Y-45835142D01*
X43815047Y-47099428D02*
X44576952Y-47099428D01*
X44196000Y-47480380D02*
X44196000Y-46718476D01*
X40379333Y-80887142D02*
X40331714Y-80934761D01*
X40188857Y-80982380D01*
X40093619Y-80982380D01*
X39950761Y-80934761D01*
X39855523Y-80839523D01*
X39807904Y-80744285D01*
X39760285Y-80553809D01*
X39760285Y-80410952D01*
X39807904Y-80220476D01*
X39855523Y-80125238D01*
X39950761Y-80030000D01*
X40093619Y-79982380D01*
X40188857Y-79982380D01*
X40331714Y-80030000D01*
X40379333Y-80077619D01*
X41236476Y-80315714D02*
X41236476Y-80982380D01*
X40998380Y-79934761D02*
X40760285Y-80649047D01*
X41379333Y-80649047D01*
X43942047Y-81986428D02*
X44703952Y-81986428D01*
X44323000Y-82367380D02*
X44323000Y-81605476D01*
X40379333Y-116066142D02*
X40331714Y-116113761D01*
X40188857Y-116161380D01*
X40093619Y-116161380D01*
X39950761Y-116113761D01*
X39855523Y-116018523D01*
X39807904Y-115923285D01*
X39760285Y-115732809D01*
X39760285Y-115589952D01*
X39807904Y-115399476D01*
X39855523Y-115304238D01*
X39950761Y-115209000D01*
X40093619Y-115161380D01*
X40188857Y-115161380D01*
X40331714Y-115209000D01*
X40379333Y-115256619D01*
X40712666Y-115161380D02*
X41331714Y-115161380D01*
X40998380Y-115542333D01*
X41141238Y-115542333D01*
X41236476Y-115589952D01*
X41284095Y-115637571D01*
X41331714Y-115732809D01*
X41331714Y-115970904D01*
X41284095Y-116066142D01*
X41236476Y-116113761D01*
X41141238Y-116161380D01*
X40855523Y-116161380D01*
X40760285Y-116113761D01*
X40712666Y-116066142D01*
X43942047Y-117292428D02*
X44703952Y-117292428D01*
X44323000Y-117673380D02*
X44323000Y-116911476D01*
X40379333Y-98794142D02*
X40331714Y-98841761D01*
X40188857Y-98889380D01*
X40093619Y-98889380D01*
X39950761Y-98841761D01*
X39855523Y-98746523D01*
X39807904Y-98651285D01*
X39760285Y-98460809D01*
X39760285Y-98317952D01*
X39807904Y-98127476D01*
X39855523Y-98032238D01*
X39950761Y-97937000D01*
X40093619Y-97889380D01*
X40188857Y-97889380D01*
X40331714Y-97937000D01*
X40379333Y-97984619D01*
X40760285Y-97984619D02*
X40807904Y-97937000D01*
X40903142Y-97889380D01*
X41141238Y-97889380D01*
X41236476Y-97937000D01*
X41284095Y-97984619D01*
X41331714Y-98079857D01*
X41331714Y-98175095D01*
X41284095Y-98317952D01*
X40712666Y-98889380D01*
X41331714Y-98889380D01*
X44069047Y-100020428D02*
X44830952Y-100020428D01*
X44450000Y-100401380D02*
X44450000Y-99639476D01*
X40125333Y-63488142D02*
X40077714Y-63535761D01*
X39934857Y-63583380D01*
X39839619Y-63583380D01*
X39696761Y-63535761D01*
X39601523Y-63440523D01*
X39553904Y-63345285D01*
X39506285Y-63154809D01*
X39506285Y-63011952D01*
X39553904Y-62821476D01*
X39601523Y-62726238D01*
X39696761Y-62631000D01*
X39839619Y-62583380D01*
X39934857Y-62583380D01*
X40077714Y-62631000D01*
X40125333Y-62678619D01*
X41077714Y-63583380D02*
X40506285Y-63583380D01*
X40792000Y-63583380D02*
X40792000Y-62583380D01*
X40696761Y-62726238D01*
X40601523Y-62821476D01*
X40506285Y-62869095D01*
X44191047Y-64752428D02*
X44952952Y-64752428D01*
X44572000Y-65133380D02*
X44572000Y-64371476D01*
D14*
X60197801Y-37552169D02*
X60197801Y-38362005D01*
X60245438Y-38457280D01*
X60293076Y-38504918D01*
X60388350Y-38552555D01*
X60578900Y-38552555D01*
X60674175Y-38504918D01*
X60721812Y-38457280D01*
X60769450Y-38362005D01*
X60769450Y-37552169D01*
X61769836Y-38552555D02*
X61198187Y-38552555D01*
X61484011Y-38552555D02*
X61484011Y-37552169D01*
X61388736Y-37695081D01*
X61293462Y-37790356D01*
X61198187Y-37837994D01*
D10*
X25233380Y-53791952D02*
X26233380Y-53125285D01*
X25233380Y-53125285D02*
X26233380Y-53791952D01*
X26328619Y-52982428D02*
X26328619Y-52220523D01*
X26185761Y-52030047D02*
X26233380Y-51887190D01*
X26233380Y-51649095D01*
X26185761Y-51553857D01*
X26138142Y-51506238D01*
X26042904Y-51458619D01*
X25947666Y-51458619D01*
X25852428Y-51506238D01*
X25804809Y-51553857D01*
X25757190Y-51649095D01*
X25709571Y-51839571D01*
X25661952Y-51934809D01*
X25614333Y-51982428D01*
X25519095Y-52030047D01*
X25423857Y-52030047D01*
X25328619Y-51982428D01*
X25281000Y-51934809D01*
X25233380Y-51839571D01*
X25233380Y-51601476D01*
X25281000Y-51458619D01*
X25233380Y-51172904D02*
X25233380Y-50601476D01*
X26233380Y-50887190D02*
X25233380Y-50887190D01*
X25709571Y-50268142D02*
X25709571Y-49934809D01*
X26233380Y-49791952D02*
X26233380Y-50268142D01*
X25233380Y-50268142D01*
X25233380Y-49791952D01*
X26233380Y-49363380D02*
X25233380Y-49363380D01*
X25233380Y-48982428D01*
X25281000Y-48887190D01*
X25328619Y-48839571D01*
X25423857Y-48791952D01*
X25566714Y-48791952D01*
X25661952Y-48839571D01*
X25709571Y-48887190D01*
X25757190Y-48982428D01*
X25757190Y-49363380D01*
X26328619Y-48601476D02*
X26328619Y-47839571D01*
X25709571Y-47268142D02*
X25757190Y-47125285D01*
X25804809Y-47077666D01*
X25900047Y-47030047D01*
X26042904Y-47030047D01*
X26138142Y-47077666D01*
X26185761Y-47125285D01*
X26233380Y-47220523D01*
X26233380Y-47601476D01*
X25233380Y-47601476D01*
X25233380Y-47268142D01*
X25281000Y-47172904D01*
X25328619Y-47125285D01*
X25423857Y-47077666D01*
X25519095Y-47077666D01*
X25614333Y-47125285D01*
X25661952Y-47172904D01*
X25709571Y-47268142D01*
X25709571Y-47601476D01*
X26233380Y-46077666D02*
X26233380Y-46649095D01*
X26233380Y-46363380D02*
X25233380Y-46363380D01*
X25376238Y-46458619D01*
X25471476Y-46553857D01*
X25519095Y-46649095D01*
X25106380Y-123142000D02*
X25106380Y-122475333D01*
X26106380Y-123142000D01*
X26106380Y-122475333D01*
X26201619Y-122332476D02*
X26201619Y-121570571D01*
X26058761Y-121380095D02*
X26106380Y-121237238D01*
X26106380Y-120999142D01*
X26058761Y-120903904D01*
X26011142Y-120856285D01*
X25915904Y-120808666D01*
X25820666Y-120808666D01*
X25725428Y-120856285D01*
X25677809Y-120903904D01*
X25630190Y-120999142D01*
X25582571Y-121189619D01*
X25534952Y-121284857D01*
X25487333Y-121332476D01*
X25392095Y-121380095D01*
X25296857Y-121380095D01*
X25201619Y-121332476D01*
X25154000Y-121284857D01*
X25106380Y-121189619D01*
X25106380Y-120951523D01*
X25154000Y-120808666D01*
X25106380Y-120522952D02*
X25106380Y-119951523D01*
X26106380Y-120237238D02*
X25106380Y-120237238D01*
X25582571Y-119618190D02*
X25582571Y-119284857D01*
X26106380Y-119142000D02*
X26106380Y-119618190D01*
X25106380Y-119618190D01*
X25106380Y-119142000D01*
X26106380Y-118713428D02*
X25106380Y-118713428D01*
X25106380Y-118332476D01*
X25154000Y-118237238D01*
X25201619Y-118189619D01*
X25296857Y-118142000D01*
X25439714Y-118142000D01*
X25534952Y-118189619D01*
X25582571Y-118237238D01*
X25630190Y-118332476D01*
X25630190Y-118713428D01*
X26106380Y-117189619D02*
X26106380Y-117761047D01*
X26106380Y-117475333D02*
X25106380Y-117475333D01*
X25249238Y-117570571D01*
X25344476Y-117665809D01*
X25392095Y-117761047D01*
X25884190Y-88383619D02*
X26360380Y-88383619D01*
X25360380Y-88716952D02*
X25884190Y-88383619D01*
X25360380Y-88050285D01*
X26455619Y-87955047D02*
X26455619Y-87193142D01*
X26312761Y-87002666D02*
X26360380Y-86859809D01*
X26360380Y-86621714D01*
X26312761Y-86526476D01*
X26265142Y-86478857D01*
X26169904Y-86431238D01*
X26074666Y-86431238D01*
X25979428Y-86478857D01*
X25931809Y-86526476D01*
X25884190Y-86621714D01*
X25836571Y-86812190D01*
X25788952Y-86907428D01*
X25741333Y-86955047D01*
X25646095Y-87002666D01*
X25550857Y-87002666D01*
X25455619Y-86955047D01*
X25408000Y-86907428D01*
X25360380Y-86812190D01*
X25360380Y-86574095D01*
X25408000Y-86431238D01*
X25360380Y-86145523D02*
X25360380Y-85574095D01*
X26360380Y-85859809D02*
X25360380Y-85859809D01*
X25836571Y-85240761D02*
X25836571Y-84907428D01*
X26360380Y-84764571D02*
X26360380Y-85240761D01*
X25360380Y-85240761D01*
X25360380Y-84764571D01*
X26360380Y-84336000D02*
X25360380Y-84336000D01*
X25360380Y-83955047D01*
X25408000Y-83859809D01*
X25455619Y-83812190D01*
X25550857Y-83764571D01*
X25693714Y-83764571D01*
X25788952Y-83812190D01*
X25836571Y-83859809D01*
X25884190Y-83955047D01*
X25884190Y-84336000D01*
X26455619Y-83574095D02*
X26455619Y-82812190D01*
X25836571Y-82240761D02*
X25884190Y-82097904D01*
X25931809Y-82050285D01*
X26027047Y-82002666D01*
X26169904Y-82002666D01*
X26265142Y-82050285D01*
X26312761Y-82097904D01*
X26360380Y-82193142D01*
X26360380Y-82574095D01*
X25360380Y-82574095D01*
X25360380Y-82240761D01*
X25408000Y-82145523D01*
X25455619Y-82097904D01*
X25550857Y-82050285D01*
X25646095Y-82050285D01*
X25741333Y-82097904D01*
X25788952Y-82145523D01*
X25836571Y-82240761D01*
X25836571Y-82574095D01*
X26360380Y-81050285D02*
X26360380Y-81621714D01*
X26360380Y-81336000D02*
X25360380Y-81336000D01*
X25503238Y-81431238D01*
X25598476Y-81526476D01*
X25646095Y-81621714D01*
X103933666Y-81601880D02*
X103933666Y-82316166D01*
X103886047Y-82459023D01*
X103790809Y-82554261D01*
X103647952Y-82601880D01*
X103552714Y-82601880D01*
X104314619Y-81601880D02*
X104981285Y-81601880D01*
X104552714Y-82601880D01*
X75099942Y-119091580D02*
X74766609Y-118615390D01*
X74528514Y-119091580D02*
X74528514Y-118091580D01*
X74909466Y-118091580D01*
X75004704Y-118139200D01*
X75052323Y-118186819D01*
X75099942Y-118282057D01*
X75099942Y-118424914D01*
X75052323Y-118520152D01*
X75004704Y-118567771D01*
X74909466Y-118615390D01*
X74528514Y-118615390D01*
X76052323Y-119091580D02*
X75480895Y-119091580D01*
X75766609Y-119091580D02*
X75766609Y-118091580D01*
X75671371Y-118234438D01*
X75576133Y-118329676D01*
X75480895Y-118377295D01*
X76433276Y-118186819D02*
X76480895Y-118139200D01*
X76576133Y-118091580D01*
X76814228Y-118091580D01*
X76909466Y-118139200D01*
X76957085Y-118186819D01*
X77004704Y-118282057D01*
X77004704Y-118377295D01*
X76957085Y-118520152D01*
X76385657Y-119091580D01*
X77004704Y-119091580D01*
X48125142Y-126635380D02*
X47791809Y-126159190D01*
X47553714Y-126635380D02*
X47553714Y-125635380D01*
X47934666Y-125635380D01*
X48029904Y-125683000D01*
X48077523Y-125730619D01*
X48125142Y-125825857D01*
X48125142Y-125968714D01*
X48077523Y-126063952D01*
X48029904Y-126111571D01*
X47934666Y-126159190D01*
X47553714Y-126159190D01*
X49077523Y-126635380D02*
X48506095Y-126635380D01*
X48791809Y-126635380D02*
X48791809Y-125635380D01*
X48696571Y-125778238D01*
X48601333Y-125873476D01*
X48506095Y-125921095D01*
X50029904Y-126635380D02*
X49458476Y-126635380D01*
X49744190Y-126635380D02*
X49744190Y-125635380D01*
X49648952Y-125778238D01*
X49553714Y-125873476D01*
X49458476Y-125921095D01*
X84997619Y-105095238D02*
X84950000Y-105190476D01*
X84854761Y-105285714D01*
X84711904Y-105428571D01*
X84664285Y-105523809D01*
X84664285Y-105619047D01*
X84902380Y-105571428D02*
X84854761Y-105666666D01*
X84759523Y-105761904D01*
X84569047Y-105809523D01*
X84235714Y-105809523D01*
X84045238Y-105761904D01*
X83950000Y-105666666D01*
X83902380Y-105571428D01*
X83902380Y-105380952D01*
X83950000Y-105285714D01*
X84045238Y-105190476D01*
X84235714Y-105142857D01*
X84569047Y-105142857D01*
X84759523Y-105190476D01*
X84854761Y-105285714D01*
X84902380Y-105380952D01*
X84902380Y-105571428D01*
X84902380Y-104190476D02*
X84902380Y-104761904D01*
X84902380Y-104476190D02*
X83902380Y-104476190D01*
X84045238Y-104571428D01*
X84140476Y-104666666D01*
X84188095Y-104761904D01*
D14*
X68680900Y-42683550D02*
X68680900Y-43828049D01*
X68604600Y-44056949D01*
X68452000Y-44209549D01*
X68223100Y-44285849D01*
X68070500Y-44285849D01*
X70130599Y-43217650D02*
X70130599Y-44285849D01*
X69749099Y-42607250D02*
X69367599Y-43751749D01*
X70359499Y-43751749D01*
D10*
X67746714Y-119070380D02*
X67746714Y-118070380D01*
X67984809Y-118070380D01*
X68127666Y-118118000D01*
X68222904Y-118213238D01*
X68270523Y-118308476D01*
X68318142Y-118498952D01*
X68318142Y-118641809D01*
X68270523Y-118832285D01*
X68222904Y-118927523D01*
X68127666Y-119022761D01*
X67984809Y-119070380D01*
X67746714Y-119070380D01*
X69270523Y-119070380D02*
X68699095Y-119070380D01*
X68984809Y-119070380D02*
X68984809Y-118070380D01*
X68889571Y-118213238D01*
X68794333Y-118308476D01*
X68699095Y-118356095D01*
X69651476Y-118165619D02*
X69699095Y-118118000D01*
X69794333Y-118070380D01*
X70032428Y-118070380D01*
X70127666Y-118118000D01*
X70175285Y-118165619D01*
X70222904Y-118260857D01*
X70222904Y-118356095D01*
X70175285Y-118498952D01*
X69603857Y-119070380D01*
X70222904Y-119070380D01*
X47521714Y-130445380D02*
X47521714Y-129445380D01*
X47759809Y-129445380D01*
X47902666Y-129493000D01*
X47997904Y-129588238D01*
X48045523Y-129683476D01*
X48093142Y-129873952D01*
X48093142Y-130016809D01*
X48045523Y-130207285D01*
X47997904Y-130302523D01*
X47902666Y-130397761D01*
X47759809Y-130445380D01*
X47521714Y-130445380D01*
X49045523Y-130445380D02*
X48474095Y-130445380D01*
X48759809Y-130445380D02*
X48759809Y-129445380D01*
X48664571Y-129588238D01*
X48569333Y-129683476D01*
X48474095Y-129731095D01*
X49997904Y-130445380D02*
X49426476Y-130445380D01*
X49712190Y-130445380D02*
X49712190Y-129445380D01*
X49616952Y-129588238D01*
X49521714Y-129683476D01*
X49426476Y-129731095D01*
X104394095Y-38044380D02*
X104394095Y-37044380D01*
X104394095Y-37520571D02*
X104965523Y-37520571D01*
X104965523Y-38044380D02*
X104965523Y-37044380D01*
X105346476Y-37044380D02*
X105965523Y-37044380D01*
X105632190Y-37425333D01*
X105775047Y-37425333D01*
X105870285Y-37472952D01*
X105917904Y-37520571D01*
X105965523Y-37615809D01*
X105965523Y-37853904D01*
X105917904Y-37949142D01*
X105870285Y-37996761D01*
X105775047Y-38044380D01*
X105489333Y-38044380D01*
X105394095Y-37996761D01*
X105346476Y-37949142D01*
X93521904Y-109572380D02*
X93521904Y-108572380D01*
X94093333Y-109572380D02*
X93664761Y-109000952D01*
X94093333Y-108572380D02*
X93521904Y-109143809D01*
X95045714Y-109572380D02*
X94474285Y-109572380D01*
X94760000Y-109572380D02*
X94760000Y-108572380D01*
X94664761Y-108715238D01*
X94569523Y-108810476D01*
X94474285Y-108858095D01*
X72261631Y-76667328D02*
X72261631Y-77478407D01*
X72309342Y-77573828D01*
X72357052Y-77621539D01*
X72452473Y-77669249D01*
X72643315Y-77669249D01*
X72738736Y-77621539D01*
X72786447Y-77573828D01*
X72834157Y-77478407D01*
X72834157Y-76667328D01*
X73740657Y-77001302D02*
X73740657Y-77669249D01*
X73502105Y-76619618D02*
X73263552Y-77335276D01*
X73883789Y-77335276D01*
X25757190Y-106346190D02*
X26233380Y-106346190D01*
X25233380Y-106679523D02*
X25757190Y-106346190D01*
X25233380Y-106012857D01*
X26328619Y-105917619D02*
X26328619Y-105155714D01*
X26185761Y-104965238D02*
X26233380Y-104822380D01*
X26233380Y-104584285D01*
X26185761Y-104489047D01*
X26138142Y-104441428D01*
X26042904Y-104393809D01*
X25947666Y-104393809D01*
X25852428Y-104441428D01*
X25804809Y-104489047D01*
X25757190Y-104584285D01*
X25709571Y-104774761D01*
X25661952Y-104870000D01*
X25614333Y-104917619D01*
X25519095Y-104965238D01*
X25423857Y-104965238D01*
X25328619Y-104917619D01*
X25281000Y-104870000D01*
X25233380Y-104774761D01*
X25233380Y-104536666D01*
X25281000Y-104393809D01*
X25233380Y-104108095D02*
X25233380Y-103536666D01*
X26233380Y-103822380D02*
X25233380Y-103822380D01*
X25709571Y-103203333D02*
X25709571Y-102870000D01*
X26233380Y-102727142D02*
X26233380Y-103203333D01*
X25233380Y-103203333D01*
X25233380Y-102727142D01*
X26233380Y-102298571D02*
X25233380Y-102298571D01*
X25233380Y-101917619D01*
X25281000Y-101822380D01*
X25328619Y-101774761D01*
X25423857Y-101727142D01*
X25566714Y-101727142D01*
X25661952Y-101774761D01*
X25709571Y-101822380D01*
X25757190Y-101917619D01*
X25757190Y-102298571D01*
X26328619Y-101536666D02*
X26328619Y-100774761D01*
X25947666Y-100584285D02*
X25947666Y-100108095D01*
X26233380Y-100679523D02*
X25233380Y-100346190D01*
X26233380Y-100012857D01*
X26233380Y-99155714D02*
X26233380Y-99727142D01*
X26233380Y-99441428D02*
X25233380Y-99441428D01*
X25376238Y-99536666D01*
X25471476Y-99631904D01*
X25519095Y-99727142D01*
X25233380Y-71500523D02*
X26233380Y-70833857D01*
X25233380Y-70833857D02*
X26233380Y-71500523D01*
X26328619Y-70691000D02*
X26328619Y-69929095D01*
X26185761Y-69738619D02*
X26233380Y-69595761D01*
X26233380Y-69357666D01*
X26185761Y-69262428D01*
X26138142Y-69214809D01*
X26042904Y-69167190D01*
X25947666Y-69167190D01*
X25852428Y-69214809D01*
X25804809Y-69262428D01*
X25757190Y-69357666D01*
X25709571Y-69548142D01*
X25661952Y-69643380D01*
X25614333Y-69691000D01*
X25519095Y-69738619D01*
X25423857Y-69738619D01*
X25328619Y-69691000D01*
X25281000Y-69643380D01*
X25233380Y-69548142D01*
X25233380Y-69310047D01*
X25281000Y-69167190D01*
X25233380Y-68881476D02*
X25233380Y-68310047D01*
X26233380Y-68595761D02*
X25233380Y-68595761D01*
X25709571Y-67976714D02*
X25709571Y-67643380D01*
X26233380Y-67500523D02*
X26233380Y-67976714D01*
X25233380Y-67976714D01*
X25233380Y-67500523D01*
X26233380Y-67071952D02*
X25233380Y-67071952D01*
X25233380Y-66691000D01*
X25281000Y-66595761D01*
X25328619Y-66548142D01*
X25423857Y-66500523D01*
X25566714Y-66500523D01*
X25661952Y-66548142D01*
X25709571Y-66595761D01*
X25757190Y-66691000D01*
X25757190Y-67071952D01*
X26328619Y-66310047D02*
X26328619Y-65548142D01*
X25947666Y-65357666D02*
X25947666Y-64881476D01*
X26233380Y-65452904D02*
X25233380Y-65119571D01*
X26233380Y-64786238D01*
X26233380Y-63929095D02*
X26233380Y-64500523D01*
X26233380Y-64214809D02*
X25233380Y-64214809D01*
X25376238Y-64310047D01*
X25471476Y-64405285D01*
X25519095Y-64500523D01*
X18494476Y-125226380D02*
X18494476Y-125940666D01*
X18446857Y-126083523D01*
X18351619Y-126178761D01*
X18208761Y-126226380D01*
X18113523Y-126226380D01*
X19494476Y-126226380D02*
X18923047Y-126226380D01*
X19208761Y-126226380D02*
X19208761Y-125226380D01*
X19113523Y-125369238D01*
X19018285Y-125464476D01*
X18923047Y-125512095D01*
X20351619Y-125226380D02*
X20161142Y-125226380D01*
X20065904Y-125274000D01*
X20018285Y-125321619D01*
X19923047Y-125464476D01*
X19875428Y-125654952D01*
X19875428Y-126035904D01*
X19923047Y-126131142D01*
X19970666Y-126178761D01*
X20065904Y-126226380D01*
X20256380Y-126226380D01*
X20351619Y-126178761D01*
X20399238Y-126131142D01*
X20446857Y-126035904D01*
X20446857Y-125797809D01*
X20399238Y-125702571D01*
X20351619Y-125654952D01*
X20256380Y-125607333D01*
X20065904Y-125607333D01*
X19970666Y-125654952D01*
X19923047Y-125702571D01*
X19875428Y-125797809D01*
X18367476Y-108335380D02*
X18367476Y-109049666D01*
X18319857Y-109192523D01*
X18224619Y-109287761D01*
X18081761Y-109335380D01*
X17986523Y-109335380D01*
X19367476Y-109335380D02*
X18796047Y-109335380D01*
X19081761Y-109335380D02*
X19081761Y-108335380D01*
X18986523Y-108478238D01*
X18891285Y-108573476D01*
X18796047Y-108621095D01*
X20272238Y-108335380D02*
X19796047Y-108335380D01*
X19748428Y-108811571D01*
X19796047Y-108763952D01*
X19891285Y-108716333D01*
X20129380Y-108716333D01*
X20224619Y-108763952D01*
X20272238Y-108811571D01*
X20319857Y-108906809D01*
X20319857Y-109144904D01*
X20272238Y-109240142D01*
X20224619Y-109287761D01*
X20129380Y-109335380D01*
X19891285Y-109335380D01*
X19796047Y-109287761D01*
X19748428Y-109240142D01*
X18367476Y-72775380D02*
X18367476Y-73489666D01*
X18319857Y-73632523D01*
X18224619Y-73727761D01*
X18081761Y-73775380D01*
X17986523Y-73775380D01*
X19367476Y-73775380D02*
X18796047Y-73775380D01*
X19081761Y-73775380D02*
X19081761Y-72775380D01*
X18986523Y-72918238D01*
X18891285Y-73013476D01*
X18796047Y-73061095D01*
X20224619Y-73108714D02*
X20224619Y-73775380D01*
X19986523Y-72727761D02*
X19748428Y-73442047D01*
X20367476Y-73442047D01*
X18176976Y-90555380D02*
X18176976Y-91269666D01*
X18129357Y-91412523D01*
X18034119Y-91507761D01*
X17891261Y-91555380D01*
X17796023Y-91555380D01*
X19176976Y-91555380D02*
X18605547Y-91555380D01*
X18891261Y-91555380D02*
X18891261Y-90555380D01*
X18796023Y-90698238D01*
X18700785Y-90793476D01*
X18605547Y-90841095D01*
X19557928Y-90650619D02*
X19605547Y-90603000D01*
X19700785Y-90555380D01*
X19938880Y-90555380D01*
X20034119Y-90603000D01*
X20081738Y-90650619D01*
X20129357Y-90745857D01*
X20129357Y-90841095D01*
X20081738Y-90983952D01*
X19510309Y-91555380D01*
X20129357Y-91555380D01*
X18367476Y-55503380D02*
X18367476Y-56217666D01*
X18319857Y-56360523D01*
X18224619Y-56455761D01*
X18081761Y-56503380D01*
X17986523Y-56503380D01*
X19367476Y-56503380D02*
X18796047Y-56503380D01*
X19081761Y-56503380D02*
X19081761Y-55503380D01*
X18986523Y-55646238D01*
X18891285Y-55741476D01*
X18796047Y-55789095D01*
X20319857Y-56503380D02*
X19748428Y-56503380D01*
X20034142Y-56503380D02*
X20034142Y-55503380D01*
X19938904Y-55646238D01*
X19843666Y-55741476D01*
X19748428Y-55789095D01*
X102810880Y-97329523D02*
X103525166Y-97329523D01*
X103668023Y-97377142D01*
X103763261Y-97472380D01*
X103810880Y-97615238D01*
X103810880Y-97710476D01*
X103810880Y-96329523D02*
X103810880Y-96900952D01*
X103810880Y-96615238D02*
X102810880Y-96615238D01*
X102953738Y-96710476D01*
X103048976Y-96805714D01*
X103096595Y-96900952D01*
X102810880Y-95710476D02*
X102810880Y-95615238D01*
X102858500Y-95520000D01*
X102906119Y-95472380D01*
X103001357Y-95424761D01*
X103191833Y-95377142D01*
X103429928Y-95377142D01*
X103620404Y-95424761D01*
X103715642Y-95472380D01*
X103763261Y-95520000D01*
X103810880Y-95615238D01*
X103810880Y-95710476D01*
X103763261Y-95805714D01*
X103715642Y-95853333D01*
X103620404Y-95900952D01*
X103429928Y-95948571D01*
X103191833Y-95948571D01*
X103001357Y-95900952D01*
X102906119Y-95853333D01*
X102858500Y-95805714D01*
X102810880Y-95710476D01*
X102810880Y-102187333D02*
X103525166Y-102187333D01*
X103668023Y-102234952D01*
X103763261Y-102330190D01*
X103810880Y-102473047D01*
X103810880Y-102568285D01*
X103810880Y-101663523D02*
X103810880Y-101473047D01*
X103763261Y-101377809D01*
X103715642Y-101330190D01*
X103572785Y-101234952D01*
X103382309Y-101187333D01*
X103001357Y-101187333D01*
X102906119Y-101234952D01*
X102858500Y-101282571D01*
X102810880Y-101377809D01*
X102810880Y-101568285D01*
X102858500Y-101663523D01*
X102906119Y-101711142D01*
X103001357Y-101758761D01*
X103239452Y-101758761D01*
X103334690Y-101711142D01*
X103382309Y-101663523D01*
X103429928Y-101568285D01*
X103429928Y-101377809D01*
X103382309Y-101282571D01*
X103334690Y-101234952D01*
X103239452Y-101187333D01*
X105287380Y-91265333D02*
X106001666Y-91265333D01*
X106144523Y-91312952D01*
X106239761Y-91408190D01*
X106287380Y-91551047D01*
X106287380Y-91646285D01*
X105715952Y-90646285D02*
X105668333Y-90741523D01*
X105620714Y-90789142D01*
X105525476Y-90836761D01*
X105477857Y-90836761D01*
X105382619Y-90789142D01*
X105335000Y-90741523D01*
X105287380Y-90646285D01*
X105287380Y-90455809D01*
X105335000Y-90360571D01*
X105382619Y-90312952D01*
X105477857Y-90265333D01*
X105525476Y-90265333D01*
X105620714Y-90312952D01*
X105668333Y-90360571D01*
X105715952Y-90455809D01*
X105715952Y-90646285D01*
X105763571Y-90741523D01*
X105811190Y-90789142D01*
X105906428Y-90836761D01*
X106096904Y-90836761D01*
X106192142Y-90789142D01*
X106239761Y-90741523D01*
X106287380Y-90646285D01*
X106287380Y-90455809D01*
X106239761Y-90360571D01*
X106192142Y-90312952D01*
X106096904Y-90265333D01*
X105906428Y-90265333D01*
X105811190Y-90312952D01*
X105763571Y-90360571D01*
X105715952Y-90455809D01*
X89581106Y-39341740D02*
X89581106Y-40056026D01*
X89533487Y-40198883D01*
X89438249Y-40294121D01*
X89295392Y-40341740D01*
X89200154Y-40341740D01*
X90485868Y-39341740D02*
X90295392Y-39341740D01*
X90200154Y-39389360D01*
X90152535Y-39436979D01*
X90057297Y-39579836D01*
X90009678Y-39770312D01*
X90009678Y-40151264D01*
X90057297Y-40246502D01*
X90104916Y-40294121D01*
X90200154Y-40341740D01*
X90390630Y-40341740D01*
X90485868Y-40294121D01*
X90533487Y-40246502D01*
X90581106Y-40151264D01*
X90581106Y-39913169D01*
X90533487Y-39817931D01*
X90485868Y-39770312D01*
X90390630Y-39722693D01*
X90200154Y-39722693D01*
X90104916Y-39770312D01*
X90057297Y-39817931D01*
X90009678Y-39913169D01*
X76875166Y-123610380D02*
X76875166Y-124324666D01*
X76827547Y-124467523D01*
X76732309Y-124562761D01*
X76589452Y-124610380D01*
X76494214Y-124610380D01*
X77827547Y-123610380D02*
X77351357Y-123610380D01*
X77303738Y-124086571D01*
X77351357Y-124038952D01*
X77446595Y-123991333D01*
X77684690Y-123991333D01*
X77779928Y-124038952D01*
X77827547Y-124086571D01*
X77875166Y-124181809D01*
X77875166Y-124419904D01*
X77827547Y-124515142D01*
X77779928Y-124562761D01*
X77684690Y-124610380D01*
X77446595Y-124610380D01*
X77351357Y-124562761D01*
X77303738Y-124515142D01*
X55479066Y-39286380D02*
X55479066Y-40000666D01*
X55431447Y-40143523D01*
X55336209Y-40238761D01*
X55193352Y-40286380D01*
X55098114Y-40286380D01*
X55860019Y-39286380D02*
X56479066Y-39286380D01*
X56145733Y-39667333D01*
X56288590Y-39667333D01*
X56383828Y-39714952D01*
X56431447Y-39762571D01*
X56479066Y-39857809D01*
X56479066Y-40095904D01*
X56431447Y-40191142D01*
X56383828Y-40238761D01*
X56288590Y-40286380D01*
X56002876Y-40286380D01*
X55907638Y-40238761D01*
X55860019Y-40191142D01*
X102793666Y-65322380D02*
X102793666Y-66036666D01*
X102746047Y-66179523D01*
X102650809Y-66274761D01*
X102507952Y-66322380D01*
X102412714Y-66322380D01*
X103793666Y-66322380D02*
X103222238Y-66322380D01*
X103507952Y-66322380D02*
X103507952Y-65322380D01*
X103412714Y-65465238D01*
X103317476Y-65560476D01*
X103222238Y-65608095D01*
X52443142Y-117324142D02*
X52395523Y-117371761D01*
X52252666Y-117419380D01*
X52157428Y-117419380D01*
X52014571Y-117371761D01*
X51919333Y-117276523D01*
X51871714Y-117181285D01*
X51824095Y-116990809D01*
X51824095Y-116847952D01*
X51871714Y-116657476D01*
X51919333Y-116562238D01*
X52014571Y-116467000D01*
X52157428Y-116419380D01*
X52252666Y-116419380D01*
X52395523Y-116467000D01*
X52443142Y-116514619D01*
X53395523Y-117419380D02*
X52824095Y-117419380D01*
X53109809Y-117419380D02*
X53109809Y-116419380D01*
X53014571Y-116562238D01*
X52919333Y-116657476D01*
X52824095Y-116705095D01*
X54014571Y-116419380D02*
X54109809Y-116419380D01*
X54205047Y-116467000D01*
X54252666Y-116514619D01*
X54300285Y-116609857D01*
X54347904Y-116800333D01*
X54347904Y-117038428D01*
X54300285Y-117228904D01*
X54252666Y-117324142D01*
X54205047Y-117371761D01*
X54109809Y-117419380D01*
X54014571Y-117419380D01*
X53919333Y-117371761D01*
X53871714Y-117324142D01*
X53824095Y-117228904D01*
X53776476Y-117038428D01*
X53776476Y-116800333D01*
X53824095Y-116609857D01*
X53871714Y-116514619D01*
X53919333Y-116467000D01*
X54014571Y-116419380D01*
X52443142Y-114276142D02*
X52395523Y-114323761D01*
X52252666Y-114371380D01*
X52157428Y-114371380D01*
X52014571Y-114323761D01*
X51919333Y-114228523D01*
X51871714Y-114133285D01*
X51824095Y-113942809D01*
X51824095Y-113799952D01*
X51871714Y-113609476D01*
X51919333Y-113514238D01*
X52014571Y-113419000D01*
X52157428Y-113371380D01*
X52252666Y-113371380D01*
X52395523Y-113419000D01*
X52443142Y-113466619D01*
X53395523Y-114371380D02*
X52824095Y-114371380D01*
X53109809Y-114371380D02*
X53109809Y-113371380D01*
X53014571Y-113514238D01*
X52919333Y-113609476D01*
X52824095Y-113657095D01*
X54347904Y-114371380D02*
X53776476Y-114371380D01*
X54062190Y-114371380D02*
X54062190Y-113371380D01*
X53966952Y-113514238D01*
X53871714Y-113609476D01*
X53776476Y-113657095D01*
X64365142Y-101861857D02*
X64412761Y-101909476D01*
X64460380Y-102052333D01*
X64460380Y-102147571D01*
X64412761Y-102290428D01*
X64317523Y-102385666D01*
X64222285Y-102433285D01*
X64031809Y-102480904D01*
X63888952Y-102480904D01*
X63698476Y-102433285D01*
X63603238Y-102385666D01*
X63508000Y-102290428D01*
X63460380Y-102147571D01*
X63460380Y-102052333D01*
X63508000Y-101909476D01*
X63555619Y-101861857D01*
X64460380Y-100909476D02*
X64460380Y-101480904D01*
X64460380Y-101195190D02*
X63460380Y-101195190D01*
X63603238Y-101290428D01*
X63698476Y-101385666D01*
X63746095Y-101480904D01*
X63555619Y-100528523D02*
X63508000Y-100480904D01*
X63460380Y-100385666D01*
X63460380Y-100147571D01*
X63508000Y-100052333D01*
X63555619Y-100004714D01*
X63650857Y-99957095D01*
X63746095Y-99957095D01*
X63888952Y-100004714D01*
X64460380Y-100576142D01*
X64460380Y-99957095D01*
X70334142Y-101734857D02*
X70381761Y-101782476D01*
X70429380Y-101925333D01*
X70429380Y-102020571D01*
X70381761Y-102163428D01*
X70286523Y-102258666D01*
X70191285Y-102306285D01*
X70000809Y-102353904D01*
X69857952Y-102353904D01*
X69667476Y-102306285D01*
X69572238Y-102258666D01*
X69477000Y-102163428D01*
X69429380Y-102020571D01*
X69429380Y-101925333D01*
X69477000Y-101782476D01*
X69524619Y-101734857D01*
X70429380Y-100782476D02*
X70429380Y-101353904D01*
X70429380Y-101068190D02*
X69429380Y-101068190D01*
X69572238Y-101163428D01*
X69667476Y-101258666D01*
X69715095Y-101353904D01*
X69429380Y-100449142D02*
X69429380Y-99830095D01*
X69810333Y-100163428D01*
X69810333Y-100020571D01*
X69857952Y-99925333D01*
X69905571Y-99877714D01*
X70000809Y-99830095D01*
X70238904Y-99830095D01*
X70334142Y-99877714D01*
X70381761Y-99925333D01*
X70429380Y-100020571D01*
X70429380Y-100306285D01*
X70381761Y-100401523D01*
X70334142Y-100449142D01*
X98829904Y-59452380D02*
X98829904Y-58452380D01*
X99068000Y-58452380D01*
X99210857Y-58500000D01*
X99306095Y-58595238D01*
X99353714Y-58690476D01*
X99401333Y-58880952D01*
X99401333Y-59023809D01*
X99353714Y-59214285D01*
X99306095Y-59309523D01*
X99210857Y-59404761D01*
X99068000Y-59452380D01*
X98829904Y-59452380D01*
X100353714Y-59452380D02*
X99782285Y-59452380D01*
X100068000Y-59452380D02*
X100068000Y-58452380D01*
X99972761Y-58595238D01*
X99877523Y-58690476D01*
X99782285Y-58738095D01*
X98829904Y-53538380D02*
X98829904Y-52538380D01*
X99068000Y-52538380D01*
X99210857Y-52586000D01*
X99306095Y-52681238D01*
X99353714Y-52776476D01*
X99401333Y-52966952D01*
X99401333Y-53109809D01*
X99353714Y-53300285D01*
X99306095Y-53395523D01*
X99210857Y-53490761D01*
X99068000Y-53538380D01*
X98829904Y-53538380D01*
X99734666Y-52538380D02*
X100353714Y-52538380D01*
X100020380Y-52919333D01*
X100163238Y-52919333D01*
X100258476Y-52966952D01*
X100306095Y-53014571D01*
X100353714Y-53109809D01*
X100353714Y-53347904D01*
X100306095Y-53443142D01*
X100258476Y-53490761D01*
X100163238Y-53538380D01*
X99877523Y-53538380D01*
X99782285Y-53490761D01*
X99734666Y-53443142D01*
X98834144Y-49365940D02*
X98834144Y-48365940D01*
X99072240Y-48365940D01*
X99215097Y-48413560D01*
X99310335Y-48508798D01*
X99357954Y-48604036D01*
X99405573Y-48794512D01*
X99405573Y-48937369D01*
X99357954Y-49127845D01*
X99310335Y-49223083D01*
X99215097Y-49318321D01*
X99072240Y-49365940D01*
X98834144Y-49365940D01*
X100262716Y-48699274D02*
X100262716Y-49365940D01*
X100024620Y-48318321D02*
X99786525Y-49032607D01*
X100405573Y-49032607D01*
X98829904Y-44521380D02*
X98829904Y-43521380D01*
X99068000Y-43521380D01*
X99210857Y-43569000D01*
X99306095Y-43664238D01*
X99353714Y-43759476D01*
X99401333Y-43949952D01*
X99401333Y-44092809D01*
X99353714Y-44283285D01*
X99306095Y-44378523D01*
X99210857Y-44473761D01*
X99068000Y-44521380D01*
X98829904Y-44521380D01*
X100306095Y-43521380D02*
X99829904Y-43521380D01*
X99782285Y-43997571D01*
X99829904Y-43949952D01*
X99925142Y-43902333D01*
X100163238Y-43902333D01*
X100258476Y-43949952D01*
X100306095Y-43997571D01*
X100353714Y-44092809D01*
X100353714Y-44330904D01*
X100306095Y-44426142D01*
X100258476Y-44473761D01*
X100163238Y-44521380D01*
X99925142Y-44521380D01*
X99829904Y-44473761D01*
X99782285Y-44426142D01*
X98702904Y-70302380D02*
X98702904Y-69302380D01*
X98941000Y-69302380D01*
X99083857Y-69350000D01*
X99179095Y-69445238D01*
X99226714Y-69540476D01*
X99274333Y-69730952D01*
X99274333Y-69873809D01*
X99226714Y-70064285D01*
X99179095Y-70159523D01*
X99083857Y-70254761D01*
X98941000Y-70302380D01*
X98702904Y-70302380D01*
X100131476Y-69302380D02*
X99941000Y-69302380D01*
X99845761Y-69350000D01*
X99798142Y-69397619D01*
X99702904Y-69540476D01*
X99655285Y-69730952D01*
X99655285Y-70111904D01*
X99702904Y-70207142D01*
X99750523Y-70254761D01*
X99845761Y-70302380D01*
X100036238Y-70302380D01*
X100131476Y-70254761D01*
X100179095Y-70207142D01*
X100226714Y-70111904D01*
X100226714Y-69873809D01*
X100179095Y-69778571D01*
X100131476Y-69730952D01*
X100036238Y-69683333D01*
X99845761Y-69683333D01*
X99750523Y-69730952D01*
X99702904Y-69778571D01*
X99655285Y-69873809D01*
X98702904Y-76779380D02*
X98702904Y-75779380D01*
X98941000Y-75779380D01*
X99083857Y-75827000D01*
X99179095Y-75922238D01*
X99226714Y-76017476D01*
X99274333Y-76207952D01*
X99274333Y-76350809D01*
X99226714Y-76541285D01*
X99179095Y-76636523D01*
X99083857Y-76731761D01*
X98941000Y-76779380D01*
X98702904Y-76779380D01*
X99607666Y-75779380D02*
X100274333Y-75779380D01*
X99845761Y-76779380D01*
X98702904Y-83738380D02*
X98702904Y-82738380D01*
X98941000Y-82738380D01*
X99083857Y-82786000D01*
X99179095Y-82881238D01*
X99226714Y-82976476D01*
X99274333Y-83166952D01*
X99274333Y-83309809D01*
X99226714Y-83500285D01*
X99179095Y-83595523D01*
X99083857Y-83690761D01*
X98941000Y-83738380D01*
X98702904Y-83738380D01*
X99845761Y-83166952D02*
X99750523Y-83119333D01*
X99702904Y-83071714D01*
X99655285Y-82976476D01*
X99655285Y-82928857D01*
X99702904Y-82833619D01*
X99750523Y-82786000D01*
X99845761Y-82738380D01*
X100036238Y-82738380D01*
X100131476Y-82786000D01*
X100179095Y-82833619D01*
X100226714Y-82928857D01*
X100226714Y-82976476D01*
X100179095Y-83071714D01*
X100131476Y-83119333D01*
X100036238Y-83166952D01*
X99845761Y-83166952D01*
X99750523Y-83214571D01*
X99702904Y-83262190D01*
X99655285Y-83357428D01*
X99655285Y-83547904D01*
X99702904Y-83643142D01*
X99750523Y-83690761D01*
X99845761Y-83738380D01*
X100036238Y-83738380D01*
X100131476Y-83690761D01*
X100179095Y-83643142D01*
X100226714Y-83547904D01*
X100226714Y-83357428D01*
X100179095Y-83262190D01*
X100131476Y-83214571D01*
X100036238Y-83166952D01*
X58404166Y-120610380D02*
X58404166Y-121324666D01*
X58356547Y-121467523D01*
X58261309Y-121562761D01*
X58118452Y-121610380D01*
X58023214Y-121610380D01*
X58832738Y-120705619D02*
X58880357Y-120658000D01*
X58975595Y-120610380D01*
X59213690Y-120610380D01*
X59308928Y-120658000D01*
X59356547Y-120705619D01*
X59404166Y-120800857D01*
X59404166Y-120896095D01*
X59356547Y-121038952D01*
X58785119Y-121610380D01*
X59404166Y-121610380D01*
X90574880Y-124634523D02*
X91289166Y-124634523D01*
X91432023Y-124682142D01*
X91527261Y-124777380D01*
X91574880Y-124920238D01*
X91574880Y-125015476D01*
X91574880Y-123634523D02*
X91574880Y-124205952D01*
X91574880Y-123920238D02*
X90574880Y-123920238D01*
X90717738Y-124015476D01*
X90812976Y-124110714D01*
X90860595Y-124205952D01*
X90574880Y-123301190D02*
X90574880Y-122682142D01*
X90955833Y-123015476D01*
X90955833Y-122872619D01*
X91003452Y-122777380D01*
X91051071Y-122729761D01*
X91146309Y-122682142D01*
X91384404Y-122682142D01*
X91479642Y-122729761D01*
X91527261Y-122777380D01*
X91574880Y-122872619D01*
X91574880Y-123158333D01*
X91527261Y-123253571D01*
X91479642Y-123301190D01*
X74493380Y-101131666D02*
X74493380Y-101607857D01*
X73493380Y-101607857D01*
X74493380Y-100274523D02*
X74493380Y-100845952D01*
X74493380Y-100560238D02*
X73493380Y-100560238D01*
X73636238Y-100655476D01*
X73731476Y-100750714D01*
X73779095Y-100845952D01*
X99401333Y-61793380D02*
X99068000Y-61317190D01*
X98829904Y-61793380D02*
X98829904Y-60793380D01*
X99210857Y-60793380D01*
X99306095Y-60841000D01*
X99353714Y-60888619D01*
X99401333Y-60983857D01*
X99401333Y-61126714D01*
X99353714Y-61221952D01*
X99306095Y-61269571D01*
X99210857Y-61317190D01*
X98829904Y-61317190D01*
X100353714Y-61793380D02*
X99782285Y-61793380D01*
X100068000Y-61793380D02*
X100068000Y-60793380D01*
X99972761Y-60936238D01*
X99877523Y-61031476D01*
X99782285Y-61079095D01*
X99401333Y-55824380D02*
X99068000Y-55348190D01*
X98829904Y-55824380D02*
X98829904Y-54824380D01*
X99210857Y-54824380D01*
X99306095Y-54872000D01*
X99353714Y-54919619D01*
X99401333Y-55014857D01*
X99401333Y-55157714D01*
X99353714Y-55252952D01*
X99306095Y-55300571D01*
X99210857Y-55348190D01*
X98829904Y-55348190D01*
X99734666Y-54824380D02*
X100353714Y-54824380D01*
X100020380Y-55205333D01*
X100163238Y-55205333D01*
X100258476Y-55252952D01*
X100306095Y-55300571D01*
X100353714Y-55395809D01*
X100353714Y-55633904D01*
X100306095Y-55729142D01*
X100258476Y-55776761D01*
X100163238Y-55824380D01*
X99877523Y-55824380D01*
X99782285Y-55776761D01*
X99734666Y-55729142D01*
X99401333Y-51252380D02*
X99068000Y-50776190D01*
X98829904Y-51252380D02*
X98829904Y-50252380D01*
X99210857Y-50252380D01*
X99306095Y-50300000D01*
X99353714Y-50347619D01*
X99401333Y-50442857D01*
X99401333Y-50585714D01*
X99353714Y-50680952D01*
X99306095Y-50728571D01*
X99210857Y-50776190D01*
X98829904Y-50776190D01*
X100258476Y-50585714D02*
X100258476Y-51252380D01*
X100020380Y-50204761D02*
X99782285Y-50919047D01*
X100401333Y-50919047D01*
X99401333Y-46807380D02*
X99068000Y-46331190D01*
X98829904Y-46807380D02*
X98829904Y-45807380D01*
X99210857Y-45807380D01*
X99306095Y-45855000D01*
X99353714Y-45902619D01*
X99401333Y-45997857D01*
X99401333Y-46140714D01*
X99353714Y-46235952D01*
X99306095Y-46283571D01*
X99210857Y-46331190D01*
X98829904Y-46331190D01*
X100306095Y-45807380D02*
X99829904Y-45807380D01*
X99782285Y-46283571D01*
X99829904Y-46235952D01*
X99925142Y-46188333D01*
X100163238Y-46188333D01*
X100258476Y-46235952D01*
X100306095Y-46283571D01*
X100353714Y-46378809D01*
X100353714Y-46616904D01*
X100306095Y-46712142D01*
X100258476Y-46759761D01*
X100163238Y-46807380D01*
X99925142Y-46807380D01*
X99829904Y-46759761D01*
X99782285Y-46712142D01*
X54354880Y-97937857D02*
X53878690Y-98271190D01*
X54354880Y-98509285D02*
X53354880Y-98509285D01*
X53354880Y-98128333D01*
X53402500Y-98033095D01*
X53450119Y-97985476D01*
X53545357Y-97937857D01*
X53688214Y-97937857D01*
X53783452Y-97985476D01*
X53831071Y-98033095D01*
X53878690Y-98128333D01*
X53878690Y-98509285D01*
X54354880Y-96985476D02*
X54354880Y-97556904D01*
X54354880Y-97271190D02*
X53354880Y-97271190D01*
X53497738Y-97366428D01*
X53592976Y-97461666D01*
X53640595Y-97556904D01*
X53354880Y-96652142D02*
X53354880Y-96033095D01*
X53735833Y-96366428D01*
X53735833Y-96223571D01*
X53783452Y-96128333D01*
X53831071Y-96080714D01*
X53926309Y-96033095D01*
X54164404Y-96033095D01*
X54259642Y-96080714D01*
X54307261Y-96128333D01*
X54354880Y-96223571D01*
X54354880Y-96509285D01*
X54307261Y-96604523D01*
X54259642Y-96652142D01*
X99274333Y-72588380D02*
X98941000Y-72112190D01*
X98702904Y-72588380D02*
X98702904Y-71588380D01*
X99083857Y-71588380D01*
X99179095Y-71636000D01*
X99226714Y-71683619D01*
X99274333Y-71778857D01*
X99274333Y-71921714D01*
X99226714Y-72016952D01*
X99179095Y-72064571D01*
X99083857Y-72112190D01*
X98702904Y-72112190D01*
X100131476Y-71588380D02*
X99941000Y-71588380D01*
X99845761Y-71636000D01*
X99798142Y-71683619D01*
X99702904Y-71826476D01*
X99655285Y-72016952D01*
X99655285Y-72397904D01*
X99702904Y-72493142D01*
X99750523Y-72540761D01*
X99845761Y-72588380D01*
X100036238Y-72588380D01*
X100131476Y-72540761D01*
X100179095Y-72493142D01*
X100226714Y-72397904D01*
X100226714Y-72159809D01*
X100179095Y-72064571D01*
X100131476Y-72016952D01*
X100036238Y-71969333D01*
X99845761Y-71969333D01*
X99750523Y-72016952D01*
X99702904Y-72064571D01*
X99655285Y-72159809D01*
X67381380Y-101734857D02*
X66905190Y-102068190D01*
X67381380Y-102306285D02*
X66381380Y-102306285D01*
X66381380Y-101925333D01*
X66429000Y-101830095D01*
X66476619Y-101782476D01*
X66571857Y-101734857D01*
X66714714Y-101734857D01*
X66809952Y-101782476D01*
X66857571Y-101830095D01*
X66905190Y-101925333D01*
X66905190Y-102306285D01*
X67381380Y-100782476D02*
X67381380Y-101353904D01*
X67381380Y-101068190D02*
X66381380Y-101068190D01*
X66524238Y-101163428D01*
X66619476Y-101258666D01*
X66667095Y-101353904D01*
X66714714Y-99925333D02*
X67381380Y-99925333D01*
X66333761Y-100163428D02*
X67048047Y-100401523D01*
X67048047Y-99782476D01*
X99274333Y-79065380D02*
X98941000Y-78589190D01*
X98702904Y-79065380D02*
X98702904Y-78065380D01*
X99083857Y-78065380D01*
X99179095Y-78113000D01*
X99226714Y-78160619D01*
X99274333Y-78255857D01*
X99274333Y-78398714D01*
X99226714Y-78493952D01*
X99179095Y-78541571D01*
X99083857Y-78589190D01*
X98702904Y-78589190D01*
X99607666Y-78065380D02*
X100274333Y-78065380D01*
X99845761Y-79065380D01*
X58364380Y-97797857D02*
X57888190Y-98131190D01*
X58364380Y-98369285D02*
X57364380Y-98369285D01*
X57364380Y-97988333D01*
X57412000Y-97893095D01*
X57459619Y-97845476D01*
X57554857Y-97797857D01*
X57697714Y-97797857D01*
X57792952Y-97845476D01*
X57840571Y-97893095D01*
X57888190Y-97988333D01*
X57888190Y-98369285D01*
X58364380Y-96845476D02*
X58364380Y-97416904D01*
X58364380Y-97131190D02*
X57364380Y-97131190D01*
X57507238Y-97226428D01*
X57602476Y-97321666D01*
X57650095Y-97416904D01*
X57364380Y-95940714D02*
X57364380Y-96416904D01*
X57840571Y-96464523D01*
X57792952Y-96416904D01*
X57745333Y-96321666D01*
X57745333Y-96083571D01*
X57792952Y-95988333D01*
X57840571Y-95940714D01*
X57935809Y-95893095D01*
X58173904Y-95893095D01*
X58269142Y-95940714D01*
X58316761Y-95988333D01*
X58364380Y-96083571D01*
X58364380Y-96321666D01*
X58316761Y-96416904D01*
X58269142Y-96464523D01*
X99147333Y-86050380D02*
X98814000Y-85574190D01*
X98575904Y-86050380D02*
X98575904Y-85050380D01*
X98956857Y-85050380D01*
X99052095Y-85098000D01*
X99099714Y-85145619D01*
X99147333Y-85240857D01*
X99147333Y-85383714D01*
X99099714Y-85478952D01*
X99052095Y-85526571D01*
X98956857Y-85574190D01*
X98575904Y-85574190D01*
X99718761Y-85478952D02*
X99623523Y-85431333D01*
X99575904Y-85383714D01*
X99528285Y-85288476D01*
X99528285Y-85240857D01*
X99575904Y-85145619D01*
X99623523Y-85098000D01*
X99718761Y-85050380D01*
X99909238Y-85050380D01*
X100004476Y-85098000D01*
X100052095Y-85145619D01*
X100099714Y-85240857D01*
X100099714Y-85288476D01*
X100052095Y-85383714D01*
X100004476Y-85431333D01*
X99909238Y-85478952D01*
X99718761Y-85478952D01*
X99623523Y-85526571D01*
X99575904Y-85574190D01*
X99528285Y-85669428D01*
X99528285Y-85859904D01*
X99575904Y-85955142D01*
X99623523Y-86002761D01*
X99718761Y-86050380D01*
X99909238Y-86050380D01*
X100004476Y-86002761D01*
X100052095Y-85955142D01*
X100099714Y-85859904D01*
X100099714Y-85669428D01*
X100052095Y-85574190D01*
X100004476Y-85526571D01*
X99909238Y-85478952D01*
X61285380Y-97797857D02*
X60809190Y-98131190D01*
X61285380Y-98369285D02*
X60285380Y-98369285D01*
X60285380Y-97988333D01*
X60333000Y-97893095D01*
X60380619Y-97845476D01*
X60475857Y-97797857D01*
X60618714Y-97797857D01*
X60713952Y-97845476D01*
X60761571Y-97893095D01*
X60809190Y-97988333D01*
X60809190Y-98369285D01*
X61285380Y-96845476D02*
X61285380Y-97416904D01*
X61285380Y-97131190D02*
X60285380Y-97131190D01*
X60428238Y-97226428D01*
X60523476Y-97321666D01*
X60571095Y-97416904D01*
X60285380Y-95988333D02*
X60285380Y-96178809D01*
X60333000Y-96274047D01*
X60380619Y-96321666D01*
X60523476Y-96416904D01*
X60713952Y-96464523D01*
X61094904Y-96464523D01*
X61190142Y-96416904D01*
X61237761Y-96369285D01*
X61285380Y-96274047D01*
X61285380Y-96083571D01*
X61237761Y-95988333D01*
X61190142Y-95940714D01*
X61094904Y-95893095D01*
X60856809Y-95893095D01*
X60761571Y-95940714D01*
X60713952Y-95988333D01*
X60666333Y-96083571D01*
X60666333Y-96274047D01*
X60713952Y-96369285D01*
X60761571Y-96416904D01*
X60856809Y-96464523D01*
X64642380Y-67825857D02*
X64166190Y-68159190D01*
X64642380Y-68397285D02*
X63642380Y-68397285D01*
X63642380Y-68016333D01*
X63690000Y-67921095D01*
X63737619Y-67873476D01*
X63832857Y-67825857D01*
X63975714Y-67825857D01*
X64070952Y-67873476D01*
X64118571Y-67921095D01*
X64166190Y-68016333D01*
X64166190Y-68397285D01*
X64642380Y-66873476D02*
X64642380Y-67444904D01*
X64642380Y-67159190D02*
X63642380Y-67159190D01*
X63785238Y-67254428D01*
X63880476Y-67349666D01*
X63928095Y-67444904D01*
X63642380Y-66254428D02*
X63642380Y-66159190D01*
X63690000Y-66063952D01*
X63737619Y-66016333D01*
X63832857Y-65968714D01*
X64023333Y-65921095D01*
X64261428Y-65921095D01*
X64451904Y-65968714D01*
X64547142Y-66016333D01*
X64594761Y-66063952D01*
X64642380Y-66159190D01*
X64642380Y-66254428D01*
X64594761Y-66349666D01*
X64547142Y-66397285D01*
X64451904Y-66444904D01*
X64261428Y-66492523D01*
X64023333Y-66492523D01*
X63832857Y-66444904D01*
X63737619Y-66397285D01*
X63690000Y-66349666D01*
X63642380Y-66254428D01*
X81279380Y-94463857D02*
X80803190Y-94797190D01*
X81279380Y-95035285D02*
X80279380Y-95035285D01*
X80279380Y-94654333D01*
X80327000Y-94559095D01*
X80374619Y-94511476D01*
X80469857Y-94463857D01*
X80612714Y-94463857D01*
X80707952Y-94511476D01*
X80755571Y-94559095D01*
X80803190Y-94654333D01*
X80803190Y-95035285D01*
X81279380Y-93511476D02*
X81279380Y-94082904D01*
X81279380Y-93797190D02*
X80279380Y-93797190D01*
X80422238Y-93892428D01*
X80517476Y-93987666D01*
X80565095Y-94082904D01*
X80707952Y-92940047D02*
X80660333Y-93035285D01*
X80612714Y-93082904D01*
X80517476Y-93130523D01*
X80469857Y-93130523D01*
X80374619Y-93082904D01*
X80327000Y-93035285D01*
X80279380Y-92940047D01*
X80279380Y-92749571D01*
X80327000Y-92654333D01*
X80374619Y-92606714D01*
X80469857Y-92559095D01*
X80517476Y-92559095D01*
X80612714Y-92606714D01*
X80660333Y-92654333D01*
X80707952Y-92749571D01*
X80707952Y-92940047D01*
X80755571Y-93035285D01*
X80803190Y-93082904D01*
X80898428Y-93130523D01*
X81088904Y-93130523D01*
X81184142Y-93082904D01*
X81231761Y-93035285D01*
X81279380Y-92940047D01*
X81279380Y-92749571D01*
X81231761Y-92654333D01*
X81184142Y-92606714D01*
X81088904Y-92559095D01*
X80898428Y-92559095D01*
X80803190Y-92606714D01*
X80755571Y-92654333D01*
X80707952Y-92749571D01*
X57210499Y-111718155D02*
X57210499Y-112530968D01*
X57258312Y-112626593D01*
X57306124Y-112674406D01*
X57401749Y-112722218D01*
X57592999Y-112722218D01*
X57688624Y-112674406D01*
X57736437Y-112626593D01*
X57784249Y-112530968D01*
X57784249Y-111718155D01*
X58166750Y-111718155D02*
X58788312Y-111718155D01*
X58453625Y-112100656D01*
X58597062Y-112100656D01*
X58692687Y-112148468D01*
X58740500Y-112196281D01*
X58788312Y-112291906D01*
X58788312Y-112530968D01*
X58740500Y-112626593D01*
X58692687Y-112674406D01*
X58597062Y-112722218D01*
X58310187Y-112722218D01*
X58214562Y-112674406D01*
X58166750Y-112626593D01*
M02*
