M48
; DRILL file {KiCad (5.1.5)-3} date 26/01/2020 10:51:44
; FORMAT={-:-/ absolute / inch / decimal}
; #@! TF.CreationDate,2020-01-26T10:51:44+01:00
; #@! TF.GenerationSoftware,Kicad,Pcbnew,(5.1.5)-3
; #@! TF.FileFunction,Plated,1,2,PTH
FMAT,2
INCH
T1C0.0157
T2C0.0299
T3C0.0394
T4C0.0402
T5C0.0409
T6C0.0520
T7C0.1693
%
G90
G05
T1
X1.7379Y-1.811
X1.7379Y-3.189
X1.7379Y-3.8976
X1.7379Y-4.5669
X1.9291Y-1.4961
X2.0079Y-1.4961
X2.0525Y-4.1925
X2.085Y-2.035
X2.085Y-2.43
X2.0855Y-3.0645
X2.0855Y-3.7841
X2.0866Y-1.4961
X2.1654Y-1.4961
X2.2525Y-4.2425
X2.2525Y-4.2925
X2.2525Y-4.34
X2.2835Y-4.2615
X2.2835Y-4.3215
X2.31Y-4.2875
X2.3125Y-4.2425
X2.315Y-4.34
X2.455Y-2.8556
X2.5197Y-3.189
X2.5197Y-3.2677
X2.5197Y-3.3465
X2.522Y-1.642
X2.54Y-1.91
X2.6659Y-3.189
X2.6659Y-3.2677
X2.6659Y-3.3465
X2.7147Y-2.9272
X2.815Y-2.295
X2.815Y-2.355
X2.815Y-2.415
X2.832Y-1.646
X2.875Y-2.415
X2.88Y-2.36
X2.935Y-2.415
X2.945Y-2.83
X2.96Y-1.645
X2.96Y-2.23
X2.965Y-3.74
X2.965Y-3.81
X2.965Y-3.88
X3.01Y-2.285
X3.02Y-2.73
X3.02Y-2.955
X3.025Y-3.74
X3.025Y-3.81
X3.025Y-3.88
X3.065Y-2.34
X3.2503Y-3.4857
X3.4252Y-3.8976
X3.4252Y-3.9764
X3.4252Y-4.0551
X3.5039Y-3.8976
X3.5039Y-3.9764
X3.5039Y-4.0551
X3.5827Y-3.8976
X3.5827Y-3.9764
X3.5827Y-4.0551
X3.7008Y-1.5354
X3.745Y-2.84
X3.745Y-3.095
X3.745Y-3.37
X3.745Y-2.485
X3.7795Y-1.5354
X3.8583Y-1.5354
X3.937Y-1.5354
X4.0945Y-3.8976
X4.0945Y-3.9764
X4.0945Y-4.0551
X4.1732Y-3.8976
X4.1732Y-3.9764
X4.1732Y-4.0551
T2
X3.337Y-4.4094
X3.337Y-4.7094
T3
X2.1973Y-1.66
X2.1973Y-1.76
X2.1973Y-1.86
X2.1973Y-1.96
X2.1973Y-2.06
X2.1973Y-2.16
X2.1973Y-2.26
X2.1973Y-2.36
X2.1973Y-2.46
X2.1973Y-2.56
X2.1973Y-2.66
X2.1973Y-2.76
X2.1973Y-2.86
X2.1973Y-2.96
X2.1973Y-3.06
X2.1973Y-3.16
X2.1973Y-3.26
X2.1973Y-3.36
X2.1973Y-3.46
X0.7475Y-3.195
X0.7475Y-3.295
X0.7475Y-3.395
X0.7475Y-3.495
X0.755Y-3.895
X0.755Y-3.995
X0.755Y-4.095
X0.755Y-4.195
X0.755Y-2.495
X0.755Y-2.595
X0.755Y-2.695
X0.755Y-2.795
X4.0601Y-1.8016
X4.0601Y-1.9016
X4.0601Y-2.0016
X4.0601Y-2.1016
X4.0601Y-2.2016
X4.0601Y-2.3016
X4.0601Y-2.4016
X4.0601Y-2.5016
X3.7775Y-3.8
X3.8775Y-3.8
X3.9775Y-3.8
X2.79Y-4.8825
X2.89Y-4.8825
X3.5399Y-1.6622
X3.5399Y-1.7622
X3.5399Y-1.8622
X3.5399Y-1.9622
X3.5399Y-2.0622
X3.5399Y-2.1622
X3.5399Y-2.2622
X3.5399Y-2.3622
X3.5399Y-2.4622
X3.5399Y-2.5622
X3.5399Y-2.6622
X3.5399Y-2.7622
X3.5399Y-2.8622
X3.5399Y-2.9622
X3.5399Y-3.0622
X3.5399Y-3.1622
X3.5399Y-3.2622
X3.5399Y-3.3622
X3.5399Y-3.4622
X3.737Y-4.7094
X3.937Y-4.4094
X4.037Y-4.7094
X0.755Y-1.815
X0.755Y-1.915
X0.755Y-2.015
X0.755Y-2.115
X0.76Y-4.56
X0.76Y-4.66
X0.76Y-4.76
X0.76Y-4.86
X3.775Y-3.58
X3.875Y-3.58
X3.975Y-3.58
X4.075Y-3.58
X4.055Y-2.7425
X4.055Y-2.8425
X4.055Y-2.9425
X4.055Y-3.0425
X4.055Y-3.1425
X4.155Y-2.7425
X4.155Y-2.8425
X4.155Y-2.9425
X4.155Y-3.0425
X4.155Y-3.1425
X3.7775Y-4.01
X3.8775Y-4.01
X3.9775Y-4.01
T4
X1.0243Y-3.795
X1.0243Y-4.295
X1.1243Y-3.795
X1.1243Y-4.295
X1.2243Y-3.795
X1.2243Y-4.295
X1.3243Y-3.795
X1.3243Y-4.295
X1.4243Y-3.795
X1.4243Y-4.295
X1.5243Y-3.795
X1.5243Y-4.295
X1.6243Y-3.795
X1.6243Y-4.295
X1.7243Y-3.795
X1.7243Y-4.295
X1.02Y-2.4063
X1.02Y-2.9063
X1.12Y-2.4063
X1.12Y-2.9063
X1.22Y-2.4063
X1.22Y-2.9063
X1.32Y-2.4063
X1.32Y-2.9063
X1.42Y-2.4063
X1.42Y-2.9063
X1.52Y-2.4063
X1.52Y-2.9063
X1.62Y-2.4063
X1.62Y-2.9063
X1.72Y-2.4063
X1.72Y-2.9063
X1.0243Y-3.0898
X1.0243Y-3.5898
X1.1243Y-3.0898
X1.1243Y-3.5898
X1.2243Y-3.0898
X1.2243Y-3.5898
X1.3243Y-3.0898
X1.3243Y-3.5898
X1.4243Y-3.0898
X1.4243Y-3.5898
X1.5243Y-3.0898
X1.5243Y-3.5898
X1.6243Y-3.0898
X1.6243Y-3.5898
X1.7243Y-3.0898
X1.7243Y-3.5898
X1.02Y-1.715
X1.02Y-2.215
X1.12Y-1.715
X1.12Y-2.215
X1.22Y-1.715
X1.22Y-2.215
X1.32Y-1.715
X1.32Y-2.215
X1.42Y-1.715
X1.42Y-2.215
X1.52Y-1.715
X1.52Y-2.215
X1.62Y-1.715
X1.62Y-2.215
X1.72Y-1.715
X1.72Y-2.215
X1.025Y-4.4744
X1.025Y-4.9744
X1.125Y-4.4744
X1.125Y-4.9744
X1.225Y-4.4744
X1.225Y-4.9744
X1.325Y-4.4744
X1.325Y-4.9744
X1.425Y-4.4744
X1.425Y-4.9744
X1.525Y-4.4744
X1.525Y-4.9744
X1.625Y-4.4744
X1.625Y-4.9744
X1.725Y-4.4744
X1.725Y-4.9744
T5
X2.378Y-1.662
X2.378Y-1.762
X2.378Y-1.862
X2.378Y-1.962
X2.378Y-2.062
X2.378Y-2.162
X2.378Y-2.262
X2.378Y-2.362
X2.378Y-2.462
X2.378Y-2.562
X2.378Y-2.662
X2.378Y-2.762
X2.378Y-2.862
X2.378Y-2.962
X2.378Y-3.062
X2.378Y-3.162
X2.378Y-3.262
X2.378Y-3.362
X2.378Y-3.462
X3.378Y-1.662
X3.378Y-1.762
X3.378Y-1.862
X3.378Y-1.962
X3.378Y-2.062
X3.378Y-2.162
X3.378Y-2.262
X3.378Y-2.362
X3.378Y-2.462
X3.378Y-2.562
X3.378Y-2.662
X3.378Y-2.762
X3.378Y-2.862
X3.378Y-2.962
X3.378Y-3.062
X3.378Y-3.162
X3.378Y-3.262
X3.378Y-3.362
X3.378Y-3.462
T6
X3.7795Y-5.063
X3.9764Y-5.063
X2.2047Y-5.063
X2.4016Y-5.063
T7
X0.775Y-5.14
X4.335Y-1.575
X0.78Y-1.56
X4.3307Y-5.1181
T0
M30
