G04 #@! TF.GenerationSoftware,KiCad,Pcbnew,(5.1.5)-3*
G04 #@! TF.CreationDate,2020-01-26T10:54:33+01:00*
G04 #@! TF.ProjectId,ESP32-cnc,45535033-322d-4636-9e63-2e6b69636164,rev?*
G04 #@! TF.SameCoordinates,Original*
G04 #@! TF.FileFunction,Legend,Bot*
G04 #@! TF.FilePolarity,Positive*
%FSLAX46Y46*%
G04 Gerber Fmt 4.6, Leading zero omitted, Abs format (unit mm)*
G04 Created by KiCad (PCBNEW (5.1.5)-3) date 2020-01-26 10:54:33*
%MOMM*%
%LPD*%
G04 APERTURE LIST*
%ADD10C,0.150000*%
%ADD11C,0.120000*%
G04 APERTURE END LIST*
D10*
X102559619Y-115768380D02*
X102559619Y-114768380D01*
X102559619Y-115244571D02*
X101988190Y-115244571D01*
X101988190Y-115768380D02*
X101988190Y-114768380D01*
X101512000Y-115768380D02*
X101512000Y-115101714D01*
X101512000Y-114768380D02*
X101559619Y-114816000D01*
X101512000Y-114863619D01*
X101464380Y-114816000D01*
X101512000Y-114768380D01*
X101512000Y-114863619D01*
X100607238Y-115101714D02*
X100607238Y-115911238D01*
X100654857Y-116006476D01*
X100702476Y-116054095D01*
X100797714Y-116101714D01*
X100940571Y-116101714D01*
X101035809Y-116054095D01*
X100607238Y-115720761D02*
X100702476Y-115768380D01*
X100892952Y-115768380D01*
X100988190Y-115720761D01*
X101035809Y-115673142D01*
X101083428Y-115577904D01*
X101083428Y-115292190D01*
X101035809Y-115196952D01*
X100988190Y-115149333D01*
X100892952Y-115101714D01*
X100702476Y-115101714D01*
X100607238Y-115149333D01*
X100131047Y-115768380D02*
X100131047Y-114768380D01*
X99702476Y-115768380D02*
X99702476Y-115244571D01*
X99750095Y-115149333D01*
X99845333Y-115101714D01*
X99988190Y-115101714D01*
X100083428Y-115149333D01*
X100131047Y-115196952D01*
X98559619Y-115101714D02*
X98321523Y-115768380D01*
X98083428Y-115101714D01*
X97559619Y-115768380D02*
X97654857Y-115720761D01*
X97702476Y-115673142D01*
X97750095Y-115577904D01*
X97750095Y-115292190D01*
X97702476Y-115196952D01*
X97654857Y-115149333D01*
X97559619Y-115101714D01*
X97416761Y-115101714D01*
X97321523Y-115149333D01*
X97273904Y-115196952D01*
X97226285Y-115292190D01*
X97226285Y-115577904D01*
X97273904Y-115673142D01*
X97321523Y-115720761D01*
X97416761Y-115768380D01*
X97559619Y-115768380D01*
X96654857Y-115768380D02*
X96750095Y-115720761D01*
X96797714Y-115625523D01*
X96797714Y-114768380D01*
X96416761Y-115101714D02*
X96035809Y-115101714D01*
X96273904Y-114768380D02*
X96273904Y-115625523D01*
X96226285Y-115720761D01*
X96131047Y-115768380D01*
X96035809Y-115768380D01*
X95273904Y-115768380D02*
X95273904Y-115244571D01*
X95321523Y-115149333D01*
X95416761Y-115101714D01*
X95607238Y-115101714D01*
X95702476Y-115149333D01*
X95273904Y-115720761D02*
X95369142Y-115768380D01*
X95607238Y-115768380D01*
X95702476Y-115720761D01*
X95750095Y-115625523D01*
X95750095Y-115530285D01*
X95702476Y-115435047D01*
X95607238Y-115387428D01*
X95369142Y-115387428D01*
X95273904Y-115339809D01*
X94369142Y-115101714D02*
X94369142Y-115911238D01*
X94416761Y-116006476D01*
X94464380Y-116054095D01*
X94559619Y-116101714D01*
X94702476Y-116101714D01*
X94797714Y-116054095D01*
X94369142Y-115720761D02*
X94464380Y-115768380D01*
X94654857Y-115768380D01*
X94750095Y-115720761D01*
X94797714Y-115673142D01*
X94845333Y-115577904D01*
X94845333Y-115292190D01*
X94797714Y-115196952D01*
X94750095Y-115149333D01*
X94654857Y-115101714D01*
X94464380Y-115101714D01*
X94369142Y-115149333D01*
X93512000Y-115720761D02*
X93607238Y-115768380D01*
X93797714Y-115768380D01*
X93892952Y-115720761D01*
X93940571Y-115625523D01*
X93940571Y-115244571D01*
X93892952Y-115149333D01*
X93797714Y-115101714D01*
X93607238Y-115101714D01*
X93512000Y-115149333D01*
X93464380Y-115244571D01*
X93464380Y-115339809D01*
X93940571Y-115435047D01*
X91845333Y-115768380D02*
X91845333Y-115244571D01*
X91892952Y-115149333D01*
X91988190Y-115101714D01*
X92178666Y-115101714D01*
X92273904Y-115149333D01*
X91845333Y-115720761D02*
X91940571Y-115768380D01*
X92178666Y-115768380D01*
X92273904Y-115720761D01*
X92321523Y-115625523D01*
X92321523Y-115530285D01*
X92273904Y-115435047D01*
X92178666Y-115387428D01*
X91940571Y-115387428D01*
X91845333Y-115339809D01*
X91369142Y-115768380D02*
X91369142Y-115101714D01*
X91369142Y-115292190D02*
X91321523Y-115196952D01*
X91273904Y-115149333D01*
X91178666Y-115101714D01*
X91083428Y-115101714D01*
X90369142Y-115720761D02*
X90464380Y-115768380D01*
X90654857Y-115768380D01*
X90750095Y-115720761D01*
X90797714Y-115625523D01*
X90797714Y-115244571D01*
X90750095Y-115149333D01*
X90654857Y-115101714D01*
X90464380Y-115101714D01*
X90369142Y-115149333D01*
X90321523Y-115244571D01*
X90321523Y-115339809D01*
X90797714Y-115435047D01*
X89464380Y-115768380D02*
X89464380Y-115244571D01*
X89512000Y-115149333D01*
X89607238Y-115101714D01*
X89797714Y-115101714D01*
X89892952Y-115149333D01*
X89464380Y-115720761D02*
X89559619Y-115768380D01*
X89797714Y-115768380D01*
X89892952Y-115720761D01*
X89940571Y-115625523D01*
X89940571Y-115530285D01*
X89892952Y-115435047D01*
X89797714Y-115387428D01*
X89559619Y-115387428D01*
X89464380Y-115339809D01*
D11*
X37195000Y-117349500D02*
X37195000Y-115949500D01*
X36495000Y-115249500D02*
X35895000Y-115249500D01*
X35195000Y-115949500D02*
X35195000Y-117349500D01*
X35895000Y-118049500D02*
X36495000Y-118049500D01*
X36495000Y-118049500D02*
G75*
G03X37195000Y-117349500I0J700000D01*
G01*
X35195000Y-117349500D02*
G75*
G03X35895000Y-118049500I700000J0D01*
G01*
X35895000Y-115249500D02*
G75*
G03X35195000Y-115949500I0J-700000D01*
G01*
X37195000Y-115949500D02*
G75*
G03X36495000Y-115249500I-700000J0D01*
G01*
X39735000Y-117349500D02*
X39735000Y-115949500D01*
X39035000Y-115249500D02*
X38435000Y-115249500D01*
X37735000Y-115949500D02*
X37735000Y-117349500D01*
X38435000Y-118049500D02*
X39035000Y-118049500D01*
X39035000Y-118049500D02*
G75*
G03X39735000Y-117349500I0J700000D01*
G01*
X37735000Y-117349500D02*
G75*
G03X38435000Y-118049500I700000J0D01*
G01*
X38435000Y-115249500D02*
G75*
G03X37735000Y-115949500I0J-700000D01*
G01*
X39735000Y-115949500D02*
G75*
G03X39035000Y-115249500I-700000J0D01*
G01*
X42275000Y-117349500D02*
X42275000Y-115949500D01*
X41575000Y-115249500D02*
X40975000Y-115249500D01*
X40275000Y-115949500D02*
X40275000Y-117349500D01*
X40975000Y-118049500D02*
X41575000Y-118049500D01*
X41575000Y-118049500D02*
G75*
G03X42275000Y-117349500I0J700000D01*
G01*
X40275000Y-117349500D02*
G75*
G03X40975000Y-118049500I700000J0D01*
G01*
X40975000Y-115249500D02*
G75*
G03X40275000Y-115949500I0J-700000D01*
G01*
X42275000Y-115949500D02*
G75*
G03X41575000Y-115249500I-700000J0D01*
G01*
X37195000Y-100219500D02*
X37195000Y-98819500D01*
X36495000Y-98119500D02*
X35895000Y-98119500D01*
X35195000Y-98819500D02*
X35195000Y-100219500D01*
X35895000Y-100919500D02*
X36495000Y-100919500D01*
X36495000Y-100919500D02*
G75*
G03X37195000Y-100219500I0J700000D01*
G01*
X35195000Y-100219500D02*
G75*
G03X35895000Y-100919500I700000J0D01*
G01*
X35895000Y-98119500D02*
G75*
G03X35195000Y-98819500I0J-700000D01*
G01*
X37195000Y-98819500D02*
G75*
G03X36495000Y-98119500I-700000J0D01*
G01*
X39735000Y-100204500D02*
X39735000Y-98804500D01*
X39035000Y-98104500D02*
X38435000Y-98104500D01*
X37735000Y-98804500D02*
X37735000Y-100204500D01*
X38435000Y-100904500D02*
X39035000Y-100904500D01*
X39035000Y-100904500D02*
G75*
G03X39735000Y-100204500I0J700000D01*
G01*
X37735000Y-100204500D02*
G75*
G03X38435000Y-100904500I700000J0D01*
G01*
X38435000Y-98104500D02*
G75*
G03X37735000Y-98804500I0J-700000D01*
G01*
X39735000Y-98804500D02*
G75*
G03X39035000Y-98104500I-700000J0D01*
G01*
X42275000Y-100219500D02*
X42275000Y-98819500D01*
X41575000Y-98119500D02*
X40975000Y-98119500D01*
X40275000Y-98819500D02*
X40275000Y-100219500D01*
X40975000Y-100919500D02*
X41575000Y-100919500D01*
X41575000Y-100919500D02*
G75*
G03X42275000Y-100219500I0J700000D01*
G01*
X40275000Y-100219500D02*
G75*
G03X40975000Y-100919500I700000J0D01*
G01*
X40975000Y-98119500D02*
G75*
G03X40275000Y-98819500I0J-700000D01*
G01*
X42275000Y-98819500D02*
G75*
G03X41575000Y-98119500I-700000J0D01*
G01*
X37258500Y-82409500D02*
X37258500Y-81009500D01*
X36558500Y-80309500D02*
X35958500Y-80309500D01*
X35258500Y-81009500D02*
X35258500Y-82409500D01*
X35958500Y-83109500D02*
X36558500Y-83109500D01*
X36558500Y-83109500D02*
G75*
G03X37258500Y-82409500I0J700000D01*
G01*
X35258500Y-82409500D02*
G75*
G03X35958500Y-83109500I700000J0D01*
G01*
X35958500Y-80309500D02*
G75*
G03X35258500Y-81009500I0J-700000D01*
G01*
X37258500Y-81009500D02*
G75*
G03X36558500Y-80309500I-700000J0D01*
G01*
X39798500Y-82409500D02*
X39798500Y-81009500D01*
X39098500Y-80309500D02*
X38498500Y-80309500D01*
X37798500Y-81009500D02*
X37798500Y-82409500D01*
X38498500Y-83109500D02*
X39098500Y-83109500D01*
X39098500Y-83109500D02*
G75*
G03X39798500Y-82409500I0J700000D01*
G01*
X37798500Y-82409500D02*
G75*
G03X38498500Y-83109500I700000J0D01*
G01*
X38498500Y-80309500D02*
G75*
G03X37798500Y-81009500I0J-700000D01*
G01*
X39798500Y-81009500D02*
G75*
G03X39098500Y-80309500I-700000J0D01*
G01*
X42275000Y-82409500D02*
X42275000Y-81009500D01*
X41575000Y-80309500D02*
X40975000Y-80309500D01*
X40275000Y-81009500D02*
X40275000Y-82409500D01*
X40975000Y-83109500D02*
X41575000Y-83109500D01*
X41575000Y-83109500D02*
G75*
G03X42275000Y-82409500I0J700000D01*
G01*
X40275000Y-82409500D02*
G75*
G03X40975000Y-83109500I700000J0D01*
G01*
X40975000Y-80309500D02*
G75*
G03X40275000Y-81009500I0J-700000D01*
G01*
X42275000Y-81009500D02*
G75*
G03X41575000Y-80309500I-700000J0D01*
G01*
X37131500Y-64820000D02*
X37131500Y-63420000D01*
X36431500Y-62720000D02*
X35831500Y-62720000D01*
X35131500Y-63420000D02*
X35131500Y-64820000D01*
X35831500Y-65520000D02*
X36431500Y-65520000D01*
X36431500Y-65520000D02*
G75*
G03X37131500Y-64820000I0J700000D01*
G01*
X35131500Y-64820000D02*
G75*
G03X35831500Y-65520000I700000J0D01*
G01*
X35831500Y-62720000D02*
G75*
G03X35131500Y-63420000I0J-700000D01*
G01*
X37131500Y-63420000D02*
G75*
G03X36431500Y-62720000I-700000J0D01*
G01*
X39671500Y-64820000D02*
X39671500Y-63420000D01*
X38971500Y-62720000D02*
X38371500Y-62720000D01*
X37671500Y-63420000D02*
X37671500Y-64820000D01*
X38371500Y-65520000D02*
X38971500Y-65520000D01*
X38971500Y-65520000D02*
G75*
G03X39671500Y-64820000I0J700000D01*
G01*
X37671500Y-64820000D02*
G75*
G03X38371500Y-65520000I700000J0D01*
G01*
X38371500Y-62720000D02*
G75*
G03X37671500Y-63420000I0J-700000D01*
G01*
X39671500Y-63420000D02*
G75*
G03X38971500Y-62720000I-700000J0D01*
G01*
X42211500Y-64820000D02*
X42211500Y-63420000D01*
X41511500Y-62720000D02*
X40911500Y-62720000D01*
X40211500Y-63420000D02*
X40211500Y-64820000D01*
X40911500Y-65520000D02*
X41511500Y-65520000D01*
X41511500Y-65520000D02*
G75*
G03X42211500Y-64820000I0J700000D01*
G01*
X40211500Y-64820000D02*
G75*
G03X40911500Y-65520000I700000J0D01*
G01*
X40911500Y-62720000D02*
G75*
G03X40211500Y-63420000I0J-700000D01*
G01*
X42211500Y-63420000D02*
G75*
G03X41511500Y-62720000I-700000J0D01*
G01*
X67040000Y-75518000D02*
X67040000Y-74118000D01*
X66340000Y-73418000D02*
X65740000Y-73418000D01*
X65040000Y-74118000D02*
X65040000Y-75518000D01*
X65740000Y-76218000D02*
X66340000Y-76218000D01*
X66340000Y-76218000D02*
G75*
G03X67040000Y-75518000I0J700000D01*
G01*
X65040000Y-75518000D02*
G75*
G03X65740000Y-76218000I700000J0D01*
G01*
X65740000Y-73418000D02*
G75*
G03X65040000Y-74118000I0J-700000D01*
G01*
X67040000Y-74118000D02*
G75*
G03X66340000Y-73418000I-700000J0D01*
G01*
X37068000Y-47324000D02*
X37068000Y-45924000D01*
X36368000Y-45224000D02*
X35768000Y-45224000D01*
X35068000Y-45924000D02*
X35068000Y-47324000D01*
X35768000Y-48024000D02*
X36368000Y-48024000D01*
X36368000Y-48024000D02*
G75*
G03X37068000Y-47324000I0J700000D01*
G01*
X35068000Y-47324000D02*
G75*
G03X35768000Y-48024000I700000J0D01*
G01*
X35768000Y-45224000D02*
G75*
G03X35068000Y-45924000I0J-700000D01*
G01*
X37068000Y-45924000D02*
G75*
G03X36368000Y-45224000I-700000J0D01*
G01*
X39608000Y-47324000D02*
X39608000Y-45924000D01*
X38908000Y-45224000D02*
X38308000Y-45224000D01*
X37608000Y-45924000D02*
X37608000Y-47324000D01*
X38308000Y-48024000D02*
X38908000Y-48024000D01*
X38908000Y-48024000D02*
G75*
G03X39608000Y-47324000I0J700000D01*
G01*
X37608000Y-47324000D02*
G75*
G03X38308000Y-48024000I700000J0D01*
G01*
X38308000Y-45224000D02*
G75*
G03X37608000Y-45924000I0J-700000D01*
G01*
X39608000Y-45924000D02*
G75*
G03X38908000Y-45224000I-700000J0D01*
G01*
X42148000Y-47324000D02*
X42148000Y-45924000D01*
X41448000Y-45224000D02*
X40848000Y-45224000D01*
X40148000Y-45924000D02*
X40148000Y-47324000D01*
X40848000Y-48024000D02*
X41448000Y-48024000D01*
X41448000Y-48024000D02*
G75*
G03X42148000Y-47324000I0J700000D01*
G01*
X40148000Y-47324000D02*
G75*
G03X40848000Y-48024000I700000J0D01*
G01*
X40848000Y-45224000D02*
G75*
G03X40148000Y-45924000I0J-700000D01*
G01*
X42148000Y-45924000D02*
G75*
G03X41448000Y-45224000I-700000J0D01*
G01*
D10*
X36742619Y-123332595D02*
X36742619Y-122665928D01*
X35742619Y-123332595D01*
X35742619Y-122665928D01*
X35647380Y-122523071D02*
X35647380Y-121761166D01*
X35742619Y-121523071D02*
X36742619Y-121523071D01*
X36028333Y-121189738D01*
X36742619Y-120856404D01*
X35742619Y-120856404D01*
X35790238Y-120427833D02*
X35742619Y-120284976D01*
X35742619Y-120046880D01*
X35790238Y-119951642D01*
X35837857Y-119904023D01*
X35933095Y-119856404D01*
X36028333Y-119856404D01*
X36123571Y-119904023D01*
X36171190Y-119951642D01*
X36218809Y-120046880D01*
X36266428Y-120237357D01*
X36314047Y-120332595D01*
X36361666Y-120380214D01*
X36456904Y-120427833D01*
X36552142Y-120427833D01*
X36647380Y-120380214D01*
X36695000Y-120332595D01*
X36742619Y-120237357D01*
X36742619Y-119999261D01*
X36695000Y-119856404D01*
X36742619Y-119523071D02*
X36742619Y-118904023D01*
X36361666Y-119237357D01*
X36361666Y-119094500D01*
X36314047Y-118999261D01*
X36266428Y-118951642D01*
X36171190Y-118904023D01*
X35933095Y-118904023D01*
X35837857Y-118951642D01*
X35790238Y-118999261D01*
X35742619Y-119094500D01*
X35742619Y-119380214D01*
X35790238Y-119475452D01*
X35837857Y-119523071D01*
X39282619Y-123269095D02*
X39282619Y-122602428D01*
X38282619Y-123269095D01*
X38282619Y-122602428D01*
X38187380Y-122459571D02*
X38187380Y-121697666D01*
X38282619Y-121459571D02*
X39282619Y-121459571D01*
X38568333Y-121126238D01*
X39282619Y-120792904D01*
X38282619Y-120792904D01*
X38330238Y-120364333D02*
X38282619Y-120221476D01*
X38282619Y-119983380D01*
X38330238Y-119888142D01*
X38377857Y-119840523D01*
X38473095Y-119792904D01*
X38568333Y-119792904D01*
X38663571Y-119840523D01*
X38711190Y-119888142D01*
X38758809Y-119983380D01*
X38806428Y-120173857D01*
X38854047Y-120269095D01*
X38901666Y-120316714D01*
X38996904Y-120364333D01*
X39092142Y-120364333D01*
X39187380Y-120316714D01*
X39235000Y-120269095D01*
X39282619Y-120173857D01*
X39282619Y-119935761D01*
X39235000Y-119792904D01*
X39187380Y-119411952D02*
X39235000Y-119364333D01*
X39282619Y-119269095D01*
X39282619Y-119031000D01*
X39235000Y-118935761D01*
X39187380Y-118888142D01*
X39092142Y-118840523D01*
X38996904Y-118840523D01*
X38854047Y-118888142D01*
X38282619Y-119459571D01*
X38282619Y-118840523D01*
X41759119Y-123332595D02*
X41759119Y-122665928D01*
X40759119Y-123332595D01*
X40759119Y-122665928D01*
X40663880Y-122523071D02*
X40663880Y-121761166D01*
X40759119Y-121523071D02*
X41759119Y-121523071D01*
X41044833Y-121189738D01*
X41759119Y-120856404D01*
X40759119Y-120856404D01*
X40806738Y-120427833D02*
X40759119Y-120284976D01*
X40759119Y-120046880D01*
X40806738Y-119951642D01*
X40854357Y-119904023D01*
X40949595Y-119856404D01*
X41044833Y-119856404D01*
X41140071Y-119904023D01*
X41187690Y-119951642D01*
X41235309Y-120046880D01*
X41282928Y-120237357D01*
X41330547Y-120332595D01*
X41378166Y-120380214D01*
X41473404Y-120427833D01*
X41568642Y-120427833D01*
X41663880Y-120380214D01*
X41711500Y-120332595D01*
X41759119Y-120237357D01*
X41759119Y-119999261D01*
X41711500Y-119856404D01*
X40759119Y-118904023D02*
X40759119Y-119475452D01*
X40759119Y-119189738D02*
X41759119Y-119189738D01*
X41616261Y-119284976D01*
X41521023Y-119380214D01*
X41473404Y-119475452D01*
X36155309Y-105790761D02*
X35679119Y-105790761D01*
X36679119Y-106124095D02*
X36155309Y-105790761D01*
X36679119Y-105457428D01*
X35583880Y-105362190D02*
X35583880Y-104600285D01*
X35679119Y-104362190D02*
X36679119Y-104362190D01*
X35964833Y-104028857D01*
X36679119Y-103695523D01*
X35679119Y-103695523D01*
X35726738Y-103266952D02*
X35679119Y-103124095D01*
X35679119Y-102886000D01*
X35726738Y-102790761D01*
X35774357Y-102743142D01*
X35869595Y-102695523D01*
X35964833Y-102695523D01*
X36060071Y-102743142D01*
X36107690Y-102790761D01*
X36155309Y-102886000D01*
X36202928Y-103076476D01*
X36250547Y-103171714D01*
X36298166Y-103219333D01*
X36393404Y-103266952D01*
X36488642Y-103266952D01*
X36583880Y-103219333D01*
X36631500Y-103171714D01*
X36679119Y-103076476D01*
X36679119Y-102838380D01*
X36631500Y-102695523D01*
X36679119Y-102362190D02*
X36679119Y-101743142D01*
X36298166Y-102076476D01*
X36298166Y-101933619D01*
X36250547Y-101838380D01*
X36202928Y-101790761D01*
X36107690Y-101743142D01*
X35869595Y-101743142D01*
X35774357Y-101790761D01*
X35726738Y-101838380D01*
X35679119Y-101933619D01*
X35679119Y-102219333D01*
X35726738Y-102314571D01*
X35774357Y-102362190D01*
X38822309Y-105727261D02*
X38346119Y-105727261D01*
X39346119Y-106060595D02*
X38822309Y-105727261D01*
X39346119Y-105393928D01*
X38250880Y-105298690D02*
X38250880Y-104536785D01*
X38346119Y-104298690D02*
X39346119Y-104298690D01*
X38631833Y-103965357D01*
X39346119Y-103632023D01*
X38346119Y-103632023D01*
X38393738Y-103203452D02*
X38346119Y-103060595D01*
X38346119Y-102822500D01*
X38393738Y-102727261D01*
X38441357Y-102679642D01*
X38536595Y-102632023D01*
X38631833Y-102632023D01*
X38727071Y-102679642D01*
X38774690Y-102727261D01*
X38822309Y-102822500D01*
X38869928Y-103012976D01*
X38917547Y-103108214D01*
X38965166Y-103155833D01*
X39060404Y-103203452D01*
X39155642Y-103203452D01*
X39250880Y-103155833D01*
X39298500Y-103108214D01*
X39346119Y-103012976D01*
X39346119Y-102774880D01*
X39298500Y-102632023D01*
X39250880Y-102251071D02*
X39298500Y-102203452D01*
X39346119Y-102108214D01*
X39346119Y-101870119D01*
X39298500Y-101774880D01*
X39250880Y-101727261D01*
X39155642Y-101679642D01*
X39060404Y-101679642D01*
X38917547Y-101727261D01*
X38346119Y-102298690D01*
X38346119Y-101679642D01*
X41171809Y-105727261D02*
X40695619Y-105727261D01*
X41695619Y-106060595D02*
X41171809Y-105727261D01*
X41695619Y-105393928D01*
X40600380Y-105298690D02*
X40600380Y-104536785D01*
X40695619Y-104298690D02*
X41695619Y-104298690D01*
X40981333Y-103965357D01*
X41695619Y-103632023D01*
X40695619Y-103632023D01*
X40743238Y-103203452D02*
X40695619Y-103060595D01*
X40695619Y-102822500D01*
X40743238Y-102727261D01*
X40790857Y-102679642D01*
X40886095Y-102632023D01*
X40981333Y-102632023D01*
X41076571Y-102679642D01*
X41124190Y-102727261D01*
X41171809Y-102822500D01*
X41219428Y-103012976D01*
X41267047Y-103108214D01*
X41314666Y-103155833D01*
X41409904Y-103203452D01*
X41505142Y-103203452D01*
X41600380Y-103155833D01*
X41648000Y-103108214D01*
X41695619Y-103012976D01*
X41695619Y-102774880D01*
X41648000Y-102632023D01*
X40695619Y-101679642D02*
X40695619Y-102251071D01*
X40695619Y-101965357D02*
X41695619Y-101965357D01*
X41552761Y-102060595D01*
X41457523Y-102155833D01*
X41409904Y-102251071D01*
X36218809Y-89185452D02*
X35742619Y-89185452D01*
X36742619Y-89518785D02*
X36218809Y-89185452D01*
X36742619Y-88852119D01*
X36647380Y-88566404D02*
X36695000Y-88518785D01*
X36742619Y-88423547D01*
X36742619Y-88185452D01*
X36695000Y-88090214D01*
X36647380Y-88042595D01*
X36552142Y-87994976D01*
X36456904Y-87994976D01*
X36314047Y-88042595D01*
X35742619Y-88614023D01*
X35742619Y-87994976D01*
X35647380Y-87804500D02*
X35647380Y-87042595D01*
X35742619Y-86804500D02*
X36742619Y-86804500D01*
X36028333Y-86471166D01*
X36742619Y-86137833D01*
X35742619Y-86137833D01*
X35790238Y-85709261D02*
X35742619Y-85566404D01*
X35742619Y-85328309D01*
X35790238Y-85233071D01*
X35837857Y-85185452D01*
X35933095Y-85137833D01*
X36028333Y-85137833D01*
X36123571Y-85185452D01*
X36171190Y-85233071D01*
X36218809Y-85328309D01*
X36266428Y-85518785D01*
X36314047Y-85614023D01*
X36361666Y-85661642D01*
X36456904Y-85709261D01*
X36552142Y-85709261D01*
X36647380Y-85661642D01*
X36695000Y-85614023D01*
X36742619Y-85518785D01*
X36742619Y-85280690D01*
X36695000Y-85137833D01*
X36742619Y-84804500D02*
X36742619Y-84185452D01*
X36361666Y-84518785D01*
X36361666Y-84375928D01*
X36314047Y-84280690D01*
X36266428Y-84233071D01*
X36171190Y-84185452D01*
X35933095Y-84185452D01*
X35837857Y-84233071D01*
X35790238Y-84280690D01*
X35742619Y-84375928D01*
X35742619Y-84661642D01*
X35790238Y-84756880D01*
X35837857Y-84804500D01*
X38822309Y-89248952D02*
X38346119Y-89248952D01*
X39346119Y-89582285D02*
X38822309Y-89248952D01*
X39346119Y-88915619D01*
X39250880Y-88629904D02*
X39298500Y-88582285D01*
X39346119Y-88487047D01*
X39346119Y-88248952D01*
X39298500Y-88153714D01*
X39250880Y-88106095D01*
X39155642Y-88058476D01*
X39060404Y-88058476D01*
X38917547Y-88106095D01*
X38346119Y-88677523D01*
X38346119Y-88058476D01*
X38250880Y-87868000D02*
X38250880Y-87106095D01*
X38346119Y-86868000D02*
X39346119Y-86868000D01*
X38631833Y-86534666D01*
X39346119Y-86201333D01*
X38346119Y-86201333D01*
X38393738Y-85772761D02*
X38346119Y-85629904D01*
X38346119Y-85391809D01*
X38393738Y-85296571D01*
X38441357Y-85248952D01*
X38536595Y-85201333D01*
X38631833Y-85201333D01*
X38727071Y-85248952D01*
X38774690Y-85296571D01*
X38822309Y-85391809D01*
X38869928Y-85582285D01*
X38917547Y-85677523D01*
X38965166Y-85725142D01*
X39060404Y-85772761D01*
X39155642Y-85772761D01*
X39250880Y-85725142D01*
X39298500Y-85677523D01*
X39346119Y-85582285D01*
X39346119Y-85344190D01*
X39298500Y-85201333D01*
X39250880Y-84820380D02*
X39298500Y-84772761D01*
X39346119Y-84677523D01*
X39346119Y-84439428D01*
X39298500Y-84344190D01*
X39250880Y-84296571D01*
X39155642Y-84248952D01*
X39060404Y-84248952D01*
X38917547Y-84296571D01*
X38346119Y-84868000D01*
X38346119Y-84248952D01*
X41235309Y-89121952D02*
X40759119Y-89121952D01*
X41759119Y-89455285D02*
X41235309Y-89121952D01*
X41759119Y-88788619D01*
X41663880Y-88502904D02*
X41711500Y-88455285D01*
X41759119Y-88360047D01*
X41759119Y-88121952D01*
X41711500Y-88026714D01*
X41663880Y-87979095D01*
X41568642Y-87931476D01*
X41473404Y-87931476D01*
X41330547Y-87979095D01*
X40759119Y-88550523D01*
X40759119Y-87931476D01*
X40663880Y-87741000D02*
X40663880Y-86979095D01*
X40759119Y-86741000D02*
X41759119Y-86741000D01*
X41044833Y-86407666D01*
X41759119Y-86074333D01*
X40759119Y-86074333D01*
X40806738Y-85645761D02*
X40759119Y-85502904D01*
X40759119Y-85264809D01*
X40806738Y-85169571D01*
X40854357Y-85121952D01*
X40949595Y-85074333D01*
X41044833Y-85074333D01*
X41140071Y-85121952D01*
X41187690Y-85169571D01*
X41235309Y-85264809D01*
X41282928Y-85455285D01*
X41330547Y-85550523D01*
X41378166Y-85598142D01*
X41473404Y-85645761D01*
X41568642Y-85645761D01*
X41663880Y-85598142D01*
X41711500Y-85550523D01*
X41759119Y-85455285D01*
X41759119Y-85217190D01*
X41711500Y-85074333D01*
X40759119Y-84121952D02*
X40759119Y-84693380D01*
X40759119Y-84407666D02*
X41759119Y-84407666D01*
X41616261Y-84502904D01*
X41521023Y-84598142D01*
X41473404Y-84693380D01*
X36679119Y-70564095D02*
X35679119Y-69897428D01*
X36679119Y-69897428D02*
X35679119Y-70564095D01*
X35583880Y-69754571D02*
X35583880Y-68992666D01*
X35679119Y-68754571D02*
X36679119Y-68754571D01*
X35964833Y-68421238D01*
X36679119Y-68087904D01*
X35679119Y-68087904D01*
X35726738Y-67659333D02*
X35679119Y-67516476D01*
X35679119Y-67278380D01*
X35726738Y-67183142D01*
X35774357Y-67135523D01*
X35869595Y-67087904D01*
X35964833Y-67087904D01*
X36060071Y-67135523D01*
X36107690Y-67183142D01*
X36155309Y-67278380D01*
X36202928Y-67468857D01*
X36250547Y-67564095D01*
X36298166Y-67611714D01*
X36393404Y-67659333D01*
X36488642Y-67659333D01*
X36583880Y-67611714D01*
X36631500Y-67564095D01*
X36679119Y-67468857D01*
X36679119Y-67230761D01*
X36631500Y-67087904D01*
X36679119Y-66754571D02*
X36679119Y-66135523D01*
X36298166Y-66468857D01*
X36298166Y-66326000D01*
X36250547Y-66230761D01*
X36202928Y-66183142D01*
X36107690Y-66135523D01*
X35869595Y-66135523D01*
X35774357Y-66183142D01*
X35726738Y-66230761D01*
X35679119Y-66326000D01*
X35679119Y-66611714D01*
X35726738Y-66706952D01*
X35774357Y-66754571D01*
X39219119Y-70564095D02*
X38219119Y-69897428D01*
X39219119Y-69897428D02*
X38219119Y-70564095D01*
X38123880Y-69754571D02*
X38123880Y-68992666D01*
X38219119Y-68754571D02*
X39219119Y-68754571D01*
X38504833Y-68421238D01*
X39219119Y-68087904D01*
X38219119Y-68087904D01*
X38266738Y-67659333D02*
X38219119Y-67516476D01*
X38219119Y-67278380D01*
X38266738Y-67183142D01*
X38314357Y-67135523D01*
X38409595Y-67087904D01*
X38504833Y-67087904D01*
X38600071Y-67135523D01*
X38647690Y-67183142D01*
X38695309Y-67278380D01*
X38742928Y-67468857D01*
X38790547Y-67564095D01*
X38838166Y-67611714D01*
X38933404Y-67659333D01*
X39028642Y-67659333D01*
X39123880Y-67611714D01*
X39171500Y-67564095D01*
X39219119Y-67468857D01*
X39219119Y-67230761D01*
X39171500Y-67087904D01*
X39123880Y-66706952D02*
X39171500Y-66659333D01*
X39219119Y-66564095D01*
X39219119Y-66326000D01*
X39171500Y-66230761D01*
X39123880Y-66183142D01*
X39028642Y-66135523D01*
X38933404Y-66135523D01*
X38790547Y-66183142D01*
X38219119Y-66754571D01*
X38219119Y-66135523D01*
X41759119Y-70564095D02*
X40759119Y-69897428D01*
X41759119Y-69897428D02*
X40759119Y-70564095D01*
X40663880Y-69754571D02*
X40663880Y-68992666D01*
X40759119Y-68754571D02*
X41759119Y-68754571D01*
X41044833Y-68421238D01*
X41759119Y-68087904D01*
X40759119Y-68087904D01*
X40806738Y-67659333D02*
X40759119Y-67516476D01*
X40759119Y-67278380D01*
X40806738Y-67183142D01*
X40854357Y-67135523D01*
X40949595Y-67087904D01*
X41044833Y-67087904D01*
X41140071Y-67135523D01*
X41187690Y-67183142D01*
X41235309Y-67278380D01*
X41282928Y-67468857D01*
X41330547Y-67564095D01*
X41378166Y-67611714D01*
X41473404Y-67659333D01*
X41568642Y-67659333D01*
X41663880Y-67611714D01*
X41711500Y-67564095D01*
X41759119Y-67468857D01*
X41759119Y-67230761D01*
X41711500Y-67087904D01*
X40759119Y-66135523D02*
X40759119Y-66706952D01*
X40759119Y-66421238D02*
X41759119Y-66421238D01*
X41616261Y-66516476D01*
X41521023Y-66611714D01*
X41473404Y-66706952D01*
X65428880Y-80637166D02*
X66143166Y-80637166D01*
X66286023Y-80589547D01*
X66381261Y-80494309D01*
X66428880Y-80351452D01*
X66428880Y-80256214D01*
X66428880Y-81113357D02*
X65428880Y-81113357D01*
X65428880Y-81494309D01*
X65476500Y-81589547D01*
X65524119Y-81637166D01*
X65619357Y-81684785D01*
X65762214Y-81684785D01*
X65857452Y-81637166D01*
X65905071Y-81589547D01*
X65952690Y-81494309D01*
X65952690Y-81113357D01*
X66428880Y-82637166D02*
X66428880Y-82065738D01*
X66428880Y-82351452D02*
X65428880Y-82351452D01*
X65571738Y-82256214D01*
X65666976Y-82160976D01*
X65714595Y-82065738D01*
X36615619Y-53895285D02*
X35615619Y-53228619D01*
X36615619Y-53228619D02*
X35615619Y-53895285D01*
X36520380Y-52895285D02*
X36568000Y-52847666D01*
X36615619Y-52752428D01*
X36615619Y-52514333D01*
X36568000Y-52419095D01*
X36520380Y-52371476D01*
X36425142Y-52323857D01*
X36329904Y-52323857D01*
X36187047Y-52371476D01*
X35615619Y-52942904D01*
X35615619Y-52323857D01*
X35520380Y-52133380D02*
X35520380Y-51371476D01*
X35615619Y-51133380D02*
X36615619Y-51133380D01*
X35901333Y-50800047D01*
X36615619Y-50466714D01*
X35615619Y-50466714D01*
X35663238Y-50038142D02*
X35615619Y-49895285D01*
X35615619Y-49657190D01*
X35663238Y-49561952D01*
X35710857Y-49514333D01*
X35806095Y-49466714D01*
X35901333Y-49466714D01*
X35996571Y-49514333D01*
X36044190Y-49561952D01*
X36091809Y-49657190D01*
X36139428Y-49847666D01*
X36187047Y-49942904D01*
X36234666Y-49990523D01*
X36329904Y-50038142D01*
X36425142Y-50038142D01*
X36520380Y-49990523D01*
X36568000Y-49942904D01*
X36615619Y-49847666D01*
X36615619Y-49609571D01*
X36568000Y-49466714D01*
X36615619Y-49133380D02*
X36615619Y-48514333D01*
X36234666Y-48847666D01*
X36234666Y-48704809D01*
X36187047Y-48609571D01*
X36139428Y-48561952D01*
X36044190Y-48514333D01*
X35806095Y-48514333D01*
X35710857Y-48561952D01*
X35663238Y-48609571D01*
X35615619Y-48704809D01*
X35615619Y-48990523D01*
X35663238Y-49085761D01*
X35710857Y-49133380D01*
X39155619Y-53895285D02*
X38155619Y-53228619D01*
X39155619Y-53228619D02*
X38155619Y-53895285D01*
X39060380Y-52895285D02*
X39108000Y-52847666D01*
X39155619Y-52752428D01*
X39155619Y-52514333D01*
X39108000Y-52419095D01*
X39060380Y-52371476D01*
X38965142Y-52323857D01*
X38869904Y-52323857D01*
X38727047Y-52371476D01*
X38155619Y-52942904D01*
X38155619Y-52323857D01*
X38060380Y-52133380D02*
X38060380Y-51371476D01*
X38155619Y-51133380D02*
X39155619Y-51133380D01*
X38441333Y-50800047D01*
X39155619Y-50466714D01*
X38155619Y-50466714D01*
X38203238Y-50038142D02*
X38155619Y-49895285D01*
X38155619Y-49657190D01*
X38203238Y-49561952D01*
X38250857Y-49514333D01*
X38346095Y-49466714D01*
X38441333Y-49466714D01*
X38536571Y-49514333D01*
X38584190Y-49561952D01*
X38631809Y-49657190D01*
X38679428Y-49847666D01*
X38727047Y-49942904D01*
X38774666Y-49990523D01*
X38869904Y-50038142D01*
X38965142Y-50038142D01*
X39060380Y-49990523D01*
X39108000Y-49942904D01*
X39155619Y-49847666D01*
X39155619Y-49609571D01*
X39108000Y-49466714D01*
X39060380Y-49085761D02*
X39108000Y-49038142D01*
X39155619Y-48942904D01*
X39155619Y-48704809D01*
X39108000Y-48609571D01*
X39060380Y-48561952D01*
X38965142Y-48514333D01*
X38869904Y-48514333D01*
X38727047Y-48561952D01*
X38155619Y-49133380D01*
X38155619Y-48514333D01*
X41632119Y-53895285D02*
X40632119Y-53228619D01*
X41632119Y-53228619D02*
X40632119Y-53895285D01*
X41536880Y-52895285D02*
X41584500Y-52847666D01*
X41632119Y-52752428D01*
X41632119Y-52514333D01*
X41584500Y-52419095D01*
X41536880Y-52371476D01*
X41441642Y-52323857D01*
X41346404Y-52323857D01*
X41203547Y-52371476D01*
X40632119Y-52942904D01*
X40632119Y-52323857D01*
X40536880Y-52133380D02*
X40536880Y-51371476D01*
X40632119Y-51133380D02*
X41632119Y-51133380D01*
X40917833Y-50800047D01*
X41632119Y-50466714D01*
X40632119Y-50466714D01*
X40679738Y-50038142D02*
X40632119Y-49895285D01*
X40632119Y-49657190D01*
X40679738Y-49561952D01*
X40727357Y-49514333D01*
X40822595Y-49466714D01*
X40917833Y-49466714D01*
X41013071Y-49514333D01*
X41060690Y-49561952D01*
X41108309Y-49657190D01*
X41155928Y-49847666D01*
X41203547Y-49942904D01*
X41251166Y-49990523D01*
X41346404Y-50038142D01*
X41441642Y-50038142D01*
X41536880Y-49990523D01*
X41584500Y-49942904D01*
X41632119Y-49847666D01*
X41632119Y-49609571D01*
X41584500Y-49466714D01*
X40632119Y-48514333D02*
X40632119Y-49085761D01*
X40632119Y-48800047D02*
X41632119Y-48800047D01*
X41489261Y-48895285D01*
X41394023Y-48990523D01*
X41346404Y-49085761D01*
M02*
