G04 #@! TF.GenerationSoftware,KiCad,Pcbnew,(5.1.5)-3*
G04 #@! TF.CreationDate,2020-01-26T10:54:33+01:00*
G04 #@! TF.ProjectId,ESP32-cnc,45535033-322d-4636-9e63-2e6b69636164,rev?*
G04 #@! TF.SameCoordinates,Original*
G04 #@! TF.FileFunction,Paste,Top*
G04 #@! TF.FilePolarity,Positive*
%FSLAX46Y46*%
G04 Gerber Fmt 4.6, Leading zero omitted, Abs format (unit mm)*
G04 Created by KiCad (PCBNEW (5.1.5)-3) date 2020-01-26 10:54:33*
%MOMM*%
%LPD*%
G04 APERTURE LIST*
%ADD10C,0.010000*%
%ADD11R,2.000000X1.700000*%
%ADD12R,1.420000X0.400000*%
%ADD13R,1.800000X3.500000*%
%ADD14R,3.500000X1.800000*%
%ADD15R,3.500000X1.600000*%
%ADD16R,0.800000X0.900000*%
%ADD17R,1.500000X2.000000*%
%ADD18R,0.800000X1.200000*%
%ADD19R,2.000000X1.600000*%
%ADD20R,1.600000X2.000000*%
%ADD21R,2.500000X2.500000*%
%ADD22R,1.700000X2.000000*%
%ADD23R,1.970000X0.600000*%
G04 APERTURE END LIST*
D10*
G36*
X57864587Y-110375000D02*
G01*
X57065000Y-110375000D01*
X57065000Y-109135413D01*
X57864587Y-109135413D01*
X57864587Y-110375000D01*
G37*
X57864587Y-110375000D02*
X57065000Y-110375000D01*
X57065000Y-109135413D01*
X57864587Y-109135413D01*
X57864587Y-110375000D01*
G36*
X57864791Y-108865000D02*
G01*
X57065000Y-108865000D01*
X57065000Y-107622860D01*
X57864791Y-107622860D01*
X57864791Y-108865000D01*
G37*
X57864791Y-108865000D02*
X57065000Y-108865000D01*
X57065000Y-107622860D01*
X57864791Y-107622860D01*
X57864791Y-108865000D01*
G36*
X58937272Y-108865000D02*
G01*
X58135000Y-108865000D01*
X58135000Y-107621660D01*
X58937272Y-107621660D01*
X58937272Y-108865000D01*
G37*
X58937272Y-108865000D02*
X58135000Y-108865000D01*
X58135000Y-107621660D01*
X58937272Y-107621660D01*
X58937272Y-108865000D01*
G36*
X58937019Y-110375000D02*
G01*
X58135000Y-110375000D01*
X58135000Y-109135291D01*
X58937019Y-109135291D01*
X58937019Y-110375000D01*
G37*
X58937019Y-110375000D02*
X58135000Y-110375000D01*
X58135000Y-109135291D01*
X58937019Y-109135291D01*
X58937019Y-110375000D01*
D11*
X71000000Y-65000000D03*
X75000000Y-65000000D03*
D12*
X71230000Y-69975000D03*
X71230000Y-69325000D03*
X71230000Y-68675000D03*
X71230000Y-68025000D03*
X74770000Y-68025000D03*
X74770000Y-68675000D03*
X74770000Y-69325000D03*
X74770000Y-69975000D03*
D13*
X81000000Y-115000000D03*
X81000000Y-110000000D03*
X63627000Y-113000000D03*
X63627000Y-118000000D03*
D14*
X60833000Y-92837000D03*
X65833000Y-92837000D03*
D15*
X43119000Y-50038000D03*
X37719000Y-50038000D03*
X43246000Y-85090000D03*
X37846000Y-85090000D03*
X43246000Y-120269000D03*
X37846000Y-120269000D03*
X43246000Y-102997000D03*
X37846000Y-102997000D03*
X42992000Y-67691000D03*
X37592000Y-67691000D03*
D11*
X77742800Y-116789200D03*
X73742800Y-116789200D03*
X50768000Y-124333000D03*
X46768000Y-124333000D03*
D16*
X82900000Y-104000000D03*
X81000000Y-104000000D03*
X81950000Y-106000000D03*
D17*
X66110000Y-37700000D03*
X66110000Y-45900000D03*
X80000000Y-45900000D03*
X80000000Y-37700000D03*
D18*
X77530000Y-39900000D03*
X76430000Y-39900000D03*
X75330000Y-39900000D03*
X74230000Y-39900000D03*
X73130000Y-39900000D03*
X72030000Y-39900000D03*
X70930000Y-39900000D03*
X69830000Y-39900000D03*
D11*
X66900000Y-116800000D03*
X70900000Y-116800000D03*
X50736000Y-128143000D03*
X46736000Y-128143000D03*
D12*
X71247000Y-75651000D03*
X71247000Y-75001000D03*
X71247000Y-74351000D03*
X71247000Y-73701000D03*
X74787000Y-73701000D03*
X74787000Y-74351000D03*
X74787000Y-75001000D03*
X74787000Y-75651000D03*
D19*
X56000000Y-117000000D03*
X60000000Y-117000000D03*
X56000000Y-114000000D03*
X60000000Y-114000000D03*
D20*
X64000000Y-104000000D03*
X64000000Y-108000000D03*
X70000000Y-108000000D03*
X70000000Y-104000000D03*
D11*
X97000000Y-59000000D03*
X93000000Y-59000000D03*
X93000000Y-53086000D03*
X97000000Y-53086000D03*
X96977200Y-48564800D03*
X92977200Y-48564800D03*
X93028000Y-44032000D03*
X97028000Y-44032000D03*
X93152400Y-69692400D03*
X97152400Y-69692400D03*
X97101600Y-76286000D03*
X93101600Y-76286000D03*
X93101600Y-83286000D03*
X97101600Y-83286000D03*
D21*
X74000000Y-104000000D03*
X74000000Y-107500000D03*
D11*
X97000000Y-61341000D03*
X93000000Y-61341000D03*
X93000000Y-55372000D03*
X97000000Y-55372000D03*
X96977200Y-50800000D03*
X92977200Y-50800000D03*
X97028000Y-46278800D03*
X93028000Y-46278800D03*
D22*
X53911500Y-104013000D03*
X53911500Y-100013000D03*
D11*
X93152400Y-72009000D03*
X97152400Y-72009000D03*
D22*
X67000000Y-108000000D03*
X67000000Y-104000000D03*
D11*
X97101600Y-78613000D03*
X93101600Y-78613000D03*
D22*
X58000000Y-100000000D03*
X58000000Y-104000000D03*
D11*
X93101600Y-85598000D03*
X97101600Y-85598000D03*
D22*
X61000000Y-100000000D03*
X61000000Y-104000000D03*
X66040000Y-65183000D03*
X66040000Y-69183000D03*
X82677000Y-91821000D03*
X82677000Y-95821000D03*
D23*
X60475000Y-110905000D03*
X60475000Y-109635000D03*
X60475000Y-108365000D03*
X60475000Y-107095000D03*
X55525000Y-107095000D03*
X55525000Y-108365000D03*
X55525000Y-109635000D03*
X55525000Y-110905000D03*
M02*
